<svg xmlns="http://www.w3.org/2000/svg" xmlns:xlink="http://www.w3.org/1999/xlink" width="3039" zoomAndPan="magnify" viewBox="0 0 2279.25 1012.49997" height="1350" preserveAspectRatio="xMidYMid meet" version="1.0"><defs><g/><clipPath id="30a8fb4fd9"><rect x="0" width="1209" y="0" height="252"/></clipPath><clipPath id="226da31011"><path d="M 425.671875 542.621094 L 1621.644531 542.621094 L 1621.644531 548.941406 L 425.671875 548.941406 Z M 425.671875 542.621094 " clip-rule="nonzero"/></clipPath><clipPath id="5148e9d862"><path d="M 0.671875 0.621094 L 1196.640625 0.621094 L 1196.640625 6.941406 L 0.671875 6.941406 Z M 0.671875 0.621094 " clip-rule="nonzero"/></clipPath><radialGradient gradientTransform="matrix(1, 0, 0, 1, 0.673471, 0.61956)" gradientUnits="userSpaceOnUse" r="1195.988107" cx="0" id="835a385f60" cy="0" fx="0" fy="0"><stop stop-opacity="1" stop-color="rgb(28.518677%, 26.853943%, 23.077393%)" offset="0"/><stop stop-opacity="1" stop-color="rgb(29.0802%, 27.224731%, 22.955322%)" offset="0.00390625"/><stop stop-opacity="1" stop-color="rgb(29.640198%, 27.59552%, 22.833252%)" offset="0.0078125"/><stop stop-opacity="1" stop-color="rgb(30.201721%, 27.966309%, 22.709656%)" offset="0.0117188"/><stop stop-opacity="1" stop-color="rgb(30.761719%, 28.337097%, 22.587585%)" offset="0.015625"/><stop stop-opacity="1" stop-color="rgb(31.321716%, 28.707886%, 22.465515%)" offset="0.0195312"/><stop stop-opacity="1" stop-color="rgb(31.88324%, 29.078674%, 22.341919%)" offset="0.0234375"/><stop stop-opacity="1" stop-color="rgb(32.443237%, 29.449463%, 22.219849%)" offset="0.0273438"/><stop stop-opacity="1" stop-color="rgb(33.004761%, 29.820251%, 22.097778%)" offset="0.03125"/><stop stop-opacity="1" stop-color="rgb(33.564758%, 30.189514%, 21.974182%)" offset="0.0351562"/><stop stop-opacity="1" stop-color="rgb(34.124756%, 30.560303%, 21.852112%)" offset="0.0390625"/><stop stop-opacity="1" stop-color="rgb(34.686279%, 30.931091%, 21.730042%)" offset="0.0429688"/><stop stop-opacity="1" stop-color="rgb(35.246277%, 31.30188%, 21.606445%)" offset="0.046875"/><stop stop-opacity="1" stop-color="rgb(35.8078%, 31.672668%, 21.484375%)" offset="0.0507812"/><stop stop-opacity="1" stop-color="rgb(36.367798%, 32.043457%, 21.362305%)" offset="0.0546875"/><stop stop-opacity="1" stop-color="rgb(36.927795%, 32.414246%, 21.238708%)" offset="0.0585938"/><stop stop-opacity="1" stop-color="rgb(37.489319%, 32.785034%, 21.116638%)" offset="0.0625"/><stop stop-opacity="1" stop-color="rgb(38.049316%, 33.155823%, 20.994568%)" offset="0.0664062"/><stop stop-opacity="1" stop-color="rgb(38.61084%, 33.526611%, 20.870972%)" offset="0.0703125"/><stop stop-opacity="1" stop-color="rgb(39.170837%, 33.8974%, 20.748901%)" offset="0.0742188"/><stop stop-opacity="1" stop-color="rgb(39.732361%, 34.268188%, 20.626831%)" offset="0.078125"/><stop stop-opacity="1" stop-color="rgb(40.292358%, 34.638977%, 20.503235%)" offset="0.0820312"/><stop stop-opacity="1" stop-color="rgb(40.852356%, 35.009766%, 20.381165%)" offset="0.0859375"/><stop stop-opacity="1" stop-color="rgb(41.413879%, 35.380554%, 20.259094%)" offset="0.0898438"/><stop stop-opacity="1" stop-color="rgb(41.973877%, 35.751343%, 20.135498%)" offset="0.09375"/><stop stop-opacity="1" stop-color="rgb(42.5354%, 36.122131%, 20.013428%)" offset="0.0976562"/><stop stop-opacity="1" stop-color="rgb(43.095398%, 36.491394%, 19.891357%)" offset="0.101562"/><stop stop-opacity="1" stop-color="rgb(43.655396%, 36.862183%, 19.767761%)" offset="0.105469"/><stop stop-opacity="1" stop-color="rgb(44.216919%, 37.232971%, 19.645691%)" offset="0.109375"/><stop stop-opacity="1" stop-color="rgb(44.776917%, 37.60376%, 19.523621%)" offset="0.113281"/><stop stop-opacity="1" stop-color="rgb(45.33844%, 37.974548%, 19.400024%)" offset="0.117188"/><stop stop-opacity="1" stop-color="rgb(45.898438%, 38.345337%, 19.277954%)" offset="0.121094"/><stop stop-opacity="1" stop-color="rgb(46.458435%, 38.716125%, 19.155884%)" offset="0.125"/><stop stop-opacity="1" stop-color="rgb(47.019958%, 39.086914%, 19.032288%)" offset="0.128906"/><stop stop-opacity="1" stop-color="rgb(47.579956%, 39.457703%, 18.910217%)" offset="0.132812"/><stop stop-opacity="1" stop-color="rgb(48.141479%, 39.828491%, 18.788147%)" offset="0.136719"/><stop stop-opacity="1" stop-color="rgb(48.701477%, 40.19928%, 18.664551%)" offset="0.140625"/><stop stop-opacity="1" stop-color="rgb(49.261475%, 40.570068%, 18.54248%)" offset="0.144531"/><stop stop-opacity="1" stop-color="rgb(49.822998%, 40.940857%, 18.42041%)" offset="0.148438"/><stop stop-opacity="1" stop-color="rgb(50.382996%, 41.311646%, 18.296814%)" offset="0.152344"/><stop stop-opacity="1" stop-color="rgb(50.944519%, 41.682434%, 18.174744%)" offset="0.15625"/><stop stop-opacity="1" stop-color="rgb(51.504517%, 42.053223%, 18.052673%)" offset="0.160156"/><stop stop-opacity="1" stop-color="rgb(52.06604%, 42.424011%, 17.929077%)" offset="0.164062"/><stop stop-opacity="1" stop-color="rgb(52.626038%, 42.7948%, 17.807007%)" offset="0.167969"/><stop stop-opacity="1" stop-color="rgb(53.186035%, 43.164062%, 17.684937%)" offset="0.171875"/><stop stop-opacity="1" stop-color="rgb(53.747559%, 43.534851%, 17.56134%)" offset="0.175781"/><stop stop-opacity="1" stop-color="rgb(54.307556%, 43.90564%, 17.43927%)" offset="0.179688"/><stop stop-opacity="1" stop-color="rgb(54.86908%, 44.276428%, 17.3172%)" offset="0.183594"/><stop stop-opacity="1" stop-color="rgb(55.429077%, 44.647217%, 17.193604%)" offset="0.1875"/><stop stop-opacity="1" stop-color="rgb(55.989075%, 45.018005%, 17.071533%)" offset="0.191406"/><stop stop-opacity="1" stop-color="rgb(56.550598%, 45.388794%, 16.949463%)" offset="0.195312"/><stop stop-opacity="1" stop-color="rgb(57.110596%, 45.759583%, 16.825867%)" offset="0.199219"/><stop stop-opacity="1" stop-color="rgb(57.672119%, 46.130371%, 16.703796%)" offset="0.203125"/><stop stop-opacity="1" stop-color="rgb(58.232117%, 46.50116%, 16.581726%)" offset="0.207031"/><stop stop-opacity="1" stop-color="rgb(58.792114%, 46.871948%, 16.45813%)" offset="0.210938"/><stop stop-opacity="1" stop-color="rgb(59.353638%, 47.242737%, 16.33606%)" offset="0.214844"/><stop stop-opacity="1" stop-color="rgb(59.913635%, 47.613525%, 16.213989%)" offset="0.21875"/><stop stop-opacity="1" stop-color="rgb(60.475159%, 47.984314%, 16.090393%)" offset="0.222656"/><stop stop-opacity="1" stop-color="rgb(61.035156%, 48.355103%, 15.968323%)" offset="0.226562"/><stop stop-opacity="1" stop-color="rgb(61.59668%, 48.725891%, 15.846252%)" offset="0.230469"/><stop stop-opacity="1" stop-color="rgb(62.156677%, 49.09668%, 15.722656%)" offset="0.234375"/><stop stop-opacity="1" stop-color="rgb(62.716675%, 49.467468%, 15.600586%)" offset="0.238281"/><stop stop-opacity="1" stop-color="rgb(63.278198%, 49.836731%, 15.478516%)" offset="0.242188"/><stop stop-opacity="1" stop-color="rgb(63.838196%, 50.20752%, 15.354919%)" offset="0.246094"/><stop stop-opacity="1" stop-color="rgb(64.399719%, 50.578308%, 15.232849%)" offset="0.25"/><stop stop-opacity="1" stop-color="rgb(64.959717%, 50.949097%, 15.110779%)" offset="0.253906"/><stop stop-opacity="1" stop-color="rgb(65.519714%, 51.319885%, 14.987183%)" offset="0.257812"/><stop stop-opacity="1" stop-color="rgb(66.081238%, 51.690674%, 14.865112%)" offset="0.261719"/><stop stop-opacity="1" stop-color="rgb(66.641235%, 52.061462%, 14.743042%)" offset="0.265625"/><stop stop-opacity="1" stop-color="rgb(67.202759%, 52.432251%, 14.619446%)" offset="0.269531"/><stop stop-opacity="1" stop-color="rgb(67.762756%, 52.80304%, 14.497375%)" offset="0.273438"/><stop stop-opacity="1" stop-color="rgb(68.322754%, 53.173828%, 14.375305%)" offset="0.277344"/><stop stop-opacity="1" stop-color="rgb(68.884277%, 53.544617%, 14.251709%)" offset="0.28125"/><stop stop-opacity="1" stop-color="rgb(69.444275%, 53.915405%, 14.129639%)" offset="0.285156"/><stop stop-opacity="1" stop-color="rgb(70.005798%, 54.286194%, 14.007568%)" offset="0.289062"/><stop stop-opacity="1" stop-color="rgb(70.565796%, 54.656982%, 13.883972%)" offset="0.292969"/><stop stop-opacity="1" stop-color="rgb(71.127319%, 55.027771%, 13.761902%)" offset="0.296875"/><stop stop-opacity="1" stop-color="rgb(71.687317%, 55.39856%, 13.639832%)" offset="0.300781"/><stop stop-opacity="1" stop-color="rgb(72.247314%, 55.769348%, 13.516235%)" offset="0.304688"/><stop stop-opacity="1" stop-color="rgb(72.808838%, 56.140137%, 13.394165%)" offset="0.308594"/><stop stop-opacity="1" stop-color="rgb(73.368835%, 56.509399%, 13.272095%)" offset="0.3125"/><stop stop-opacity="1" stop-color="rgb(73.930359%, 56.880188%, 13.148499%)" offset="0.316406"/><stop stop-opacity="1" stop-color="rgb(74.490356%, 57.250977%, 13.026428%)" offset="0.320312"/><stop stop-opacity="1" stop-color="rgb(75.050354%, 57.621765%, 12.904358%)" offset="0.324219"/><stop stop-opacity="1" stop-color="rgb(75.611877%, 57.992554%, 12.780762%)" offset="0.328125"/><stop stop-opacity="1" stop-color="rgb(76.171875%, 58.363342%, 12.658691%)" offset="0.332031"/><stop stop-opacity="1" stop-color="rgb(76.733398%, 58.734131%, 12.536621%)" offset="0.335938"/><stop stop-opacity="1" stop-color="rgb(77.293396%, 59.104919%, 12.413025%)" offset="0.339844"/><stop stop-opacity="1" stop-color="rgb(77.853394%, 59.475708%, 12.290955%)" offset="0.34375"/><stop stop-opacity="1" stop-color="rgb(78.414917%, 59.846497%, 12.168884%)" offset="0.347656"/><stop stop-opacity="1" stop-color="rgb(78.974915%, 60.217285%, 12.045288%)" offset="0.351562"/><stop stop-opacity="1" stop-color="rgb(79.536438%, 60.588074%, 11.923218%)" offset="0.355469"/><stop stop-opacity="1" stop-color="rgb(80.096436%, 60.958862%, 11.801147%)" offset="0.359375"/><stop stop-opacity="1" stop-color="rgb(80.657959%, 61.329651%, 11.677551%)" offset="0.363281"/><stop stop-opacity="1" stop-color="rgb(81.217957%, 61.700439%, 11.555481%)" offset="0.367188"/><stop stop-opacity="1" stop-color="rgb(81.777954%, 62.071228%, 11.433411%)" offset="0.371094"/><stop stop-opacity="1" stop-color="rgb(82.339478%, 62.442017%, 11.309814%)" offset="0.375"/><stop stop-opacity="1" stop-color="rgb(82.899475%, 62.812805%, 11.187744%)" offset="0.378906"/><stop stop-opacity="1" stop-color="rgb(83.460999%, 63.182068%, 11.065674%)" offset="0.382812"/><stop stop-opacity="1" stop-color="rgb(84.020996%, 63.552856%, 10.942078%)" offset="0.386719"/><stop stop-opacity="1" stop-color="rgb(84.580994%, 63.923645%, 10.820007%)" offset="0.390625"/><stop stop-opacity="1" stop-color="rgb(85.142517%, 64.294434%, 10.697937%)" offset="0.394531"/><stop stop-opacity="1" stop-color="rgb(85.702515%, 64.665222%, 10.574341%)" offset="0.398438"/><stop stop-opacity="1" stop-color="rgb(86.264038%, 65.036011%, 10.452271%)" offset="0.402344"/><stop stop-opacity="1" stop-color="rgb(86.824036%, 65.406799%, 10.3302%)" offset="0.40625"/><stop stop-opacity="1" stop-color="rgb(87.384033%, 65.777588%, 10.206604%)" offset="0.410156"/><stop stop-opacity="1" stop-color="rgb(87.945557%, 66.148376%, 10.084534%)" offset="0.414062"/><stop stop-opacity="1" stop-color="rgb(88.505554%, 66.519165%, 9.962463%)" offset="0.417969"/><stop stop-opacity="1" stop-color="rgb(89.067078%, 66.889954%, 9.838867%)" offset="0.421875"/><stop stop-opacity="1" stop-color="rgb(89.627075%, 67.260742%, 9.716797%)" offset="0.425781"/><stop stop-opacity="1" stop-color="rgb(90.188599%, 67.631531%, 9.594727%)" offset="0.429688"/><stop stop-opacity="1" stop-color="rgb(90.748596%, 68.002319%, 9.47113%)" offset="0.433594"/><stop stop-opacity="1" stop-color="rgb(91.308594%, 68.373108%, 9.34906%)" offset="0.4375"/><stop stop-opacity="1" stop-color="rgb(91.870117%, 68.743896%, 9.22699%)" offset="0.441406"/><stop stop-opacity="1" stop-color="rgb(92.430115%, 69.114685%, 9.103394%)" offset="0.445312"/><stop stop-opacity="1" stop-color="rgb(92.991638%, 69.485474%, 8.981323%)" offset="0.449219"/><stop stop-opacity="1" stop-color="rgb(93.551636%, 69.854736%, 8.859253%)" offset="0.453125"/><stop stop-opacity="1" stop-color="rgb(94.111633%, 70.225525%, 8.735657%)" offset="0.457031"/><stop stop-opacity="1" stop-color="rgb(94.673157%, 70.596313%, 8.613586%)" offset="0.460938"/><stop stop-opacity="1" stop-color="rgb(95.233154%, 70.967102%, 8.491516%)" offset="0.464844"/><stop stop-opacity="1" stop-color="rgb(95.794678%, 71.337891%, 8.36792%)" offset="0.46875"/><stop stop-opacity="1" stop-color="rgb(96.354675%, 71.708679%, 8.24585%)" offset="0.472656"/><stop stop-opacity="1" stop-color="rgb(96.914673%, 72.079468%, 8.123779%)" offset="0.476562"/><stop stop-opacity="1" stop-color="rgb(97.476196%, 72.450256%, 8.000183%)" offset="0.480469"/><stop stop-opacity="1" stop-color="rgb(98.036194%, 72.821045%, 7.878113%)" offset="0.484375"/><stop stop-opacity="1" stop-color="rgb(98.597717%, 73.191833%, 7.756042%)" offset="0.488281"/><stop stop-opacity="1" stop-color="rgb(99.157715%, 73.562622%, 7.632446%)" offset="0.492188"/><stop stop-opacity="1" stop-color="rgb(99.719238%, 73.933411%, 7.510376%)" offset="0.496094"/><stop stop-opacity="1" stop-color="rgb(99.687195%, 74.046326%, 7.527161%)" offset="0.5"/><stop stop-opacity="1" stop-color="rgb(99.061584%, 73.902893%, 7.6828%)" offset="0.503906"/><stop stop-opacity="1" stop-color="rgb(98.435974%, 73.75946%, 7.839966%)" offset="0.507812"/><stop stop-opacity="1" stop-color="rgb(97.81189%, 73.614502%, 7.995605%)" offset="0.511719"/><stop stop-opacity="1" stop-color="rgb(97.186279%, 73.471069%, 8.152771%)" offset="0.515625"/><stop stop-opacity="1" stop-color="rgb(96.562195%, 73.327637%, 8.308411%)" offset="0.519531"/><stop stop-opacity="1" stop-color="rgb(95.936584%, 73.182678%, 8.46405%)" offset="0.523438"/><stop stop-opacity="1" stop-color="rgb(95.310974%, 73.039246%, 8.621216%)" offset="0.527344"/><stop stop-opacity="1" stop-color="rgb(94.68689%, 72.895813%, 8.776855%)" offset="0.53125"/><stop stop-opacity="1" stop-color="rgb(94.061279%, 72.750854%, 8.934021%)" offset="0.535156"/><stop stop-opacity="1" stop-color="rgb(93.437195%, 72.607422%, 9.089661%)" offset="0.539062"/><stop stop-opacity="1" stop-color="rgb(92.811584%, 72.462463%, 9.2453%)" offset="0.542969"/><stop stop-opacity="1" stop-color="rgb(92.185974%, 72.319031%, 9.402466%)" offset="0.546875"/><stop stop-opacity="1" stop-color="rgb(91.56189%, 72.175598%, 9.558105%)" offset="0.550781"/><stop stop-opacity="1" stop-color="rgb(90.936279%, 72.03064%, 9.715271%)" offset="0.554688"/><stop stop-opacity="1" stop-color="rgb(90.312195%, 71.887207%, 9.870911%)" offset="0.558594"/><stop stop-opacity="1" stop-color="rgb(89.686584%, 71.743774%, 10.02655%)" offset="0.5625"/><stop stop-opacity="1" stop-color="rgb(89.060974%, 71.598816%, 10.183716%)" offset="0.566406"/><stop stop-opacity="1" stop-color="rgb(88.43689%, 71.455383%, 10.339355%)" offset="0.570312"/><stop stop-opacity="1" stop-color="rgb(87.811279%, 71.311951%, 10.496521%)" offset="0.574219"/><stop stop-opacity="1" stop-color="rgb(87.187195%, 71.166992%, 10.652161%)" offset="0.578125"/><stop stop-opacity="1" stop-color="rgb(86.561584%, 71.02356%, 10.8078%)" offset="0.582031"/><stop stop-opacity="1" stop-color="rgb(85.935974%, 70.878601%, 10.964966%)" offset="0.585938"/><stop stop-opacity="1" stop-color="rgb(85.31189%, 70.735168%, 11.120605%)" offset="0.589844"/><stop stop-opacity="1" stop-color="rgb(84.686279%, 70.591736%, 11.277771%)" offset="0.59375"/><stop stop-opacity="1" stop-color="rgb(84.062195%, 70.446777%, 11.433411%)" offset="0.597656"/><stop stop-opacity="1" stop-color="rgb(83.436584%, 70.303345%, 11.58905%)" offset="0.601562"/><stop stop-opacity="1" stop-color="rgb(82.810974%, 70.159912%, 11.746216%)" offset="0.605469"/><stop stop-opacity="1" stop-color="rgb(82.18689%, 70.014954%, 11.901855%)" offset="0.609375"/><stop stop-opacity="1" stop-color="rgb(81.561279%, 69.871521%, 12.059021%)" offset="0.613281"/><stop stop-opacity="1" stop-color="rgb(80.937195%, 69.728088%, 12.214661%)" offset="0.617188"/><stop stop-opacity="1" stop-color="rgb(80.311584%, 69.58313%, 12.3703%)" offset="0.621094"/><stop stop-opacity="1" stop-color="rgb(79.685974%, 69.439697%, 12.527466%)" offset="0.625"/><stop stop-opacity="1" stop-color="rgb(79.06189%, 69.294739%, 12.683105%)" offset="0.628906"/><stop stop-opacity="1" stop-color="rgb(78.436279%, 69.151306%, 12.840271%)" offset="0.632812"/><stop stop-opacity="1" stop-color="rgb(77.812195%, 69.007874%, 12.995911%)" offset="0.636719"/><stop stop-opacity="1" stop-color="rgb(77.186584%, 68.862915%, 13.15155%)" offset="0.640625"/><stop stop-opacity="1" stop-color="rgb(76.560974%, 68.719482%, 13.308716%)" offset="0.644531"/><stop stop-opacity="1" stop-color="rgb(75.93689%, 68.57605%, 13.464355%)" offset="0.648438"/><stop stop-opacity="1" stop-color="rgb(75.311279%, 68.431091%, 13.621521%)" offset="0.652344"/><stop stop-opacity="1" stop-color="rgb(74.687195%, 68.287659%, 13.777161%)" offset="0.65625"/><stop stop-opacity="1" stop-color="rgb(74.061584%, 68.144226%, 13.9328%)" offset="0.660156"/><stop stop-opacity="1" stop-color="rgb(73.435974%, 67.999268%, 14.089966%)" offset="0.664062"/><stop stop-opacity="1" stop-color="rgb(72.81189%, 67.855835%, 14.245605%)" offset="0.667969"/><stop stop-opacity="1" stop-color="rgb(72.186279%, 67.712402%, 14.402771%)" offset="0.671875"/><stop stop-opacity="1" stop-color="rgb(71.562195%, 67.567444%, 14.558411%)" offset="0.675781"/><stop stop-opacity="1" stop-color="rgb(70.936584%, 67.424011%, 14.71405%)" offset="0.679688"/><stop stop-opacity="1" stop-color="rgb(70.310974%, 67.279053%, 14.871216%)" offset="0.683594"/><stop stop-opacity="1" stop-color="rgb(69.68689%, 67.13562%, 15.026855%)" offset="0.6875"/><stop stop-opacity="1" stop-color="rgb(69.061279%, 66.992188%, 15.184021%)" offset="0.691406"/><stop stop-opacity="1" stop-color="rgb(68.437195%, 66.847229%, 15.339661%)" offset="0.695312"/><stop stop-opacity="1" stop-color="rgb(67.811584%, 66.703796%, 15.4953%)" offset="0.699219"/><stop stop-opacity="1" stop-color="rgb(67.185974%, 66.560364%, 15.652466%)" offset="0.703125"/><stop stop-opacity="1" stop-color="rgb(66.56189%, 66.415405%, 15.808105%)" offset="0.707031"/><stop stop-opacity="1" stop-color="rgb(65.936279%, 66.271973%, 15.965271%)" offset="0.710938"/><stop stop-opacity="1" stop-color="rgb(65.312195%, 66.12854%, 16.120911%)" offset="0.714844"/><stop stop-opacity="1" stop-color="rgb(64.686584%, 65.983582%, 16.27655%)" offset="0.71875"/><stop stop-opacity="1" stop-color="rgb(64.060974%, 65.840149%, 16.433716%)" offset="0.722656"/><stop stop-opacity="1" stop-color="rgb(63.43689%, 65.69519%, 16.589355%)" offset="0.726562"/><stop stop-opacity="1" stop-color="rgb(62.811279%, 65.551758%, 16.746521%)" offset="0.730469"/><stop stop-opacity="1" stop-color="rgb(62.187195%, 65.408325%, 16.902161%)" offset="0.734375"/><stop stop-opacity="1" stop-color="rgb(61.561584%, 65.263367%, 17.0578%)" offset="0.738281"/><stop stop-opacity="1" stop-color="rgb(60.935974%, 65.119934%, 17.214966%)" offset="0.742188"/><stop stop-opacity="1" stop-color="rgb(60.31189%, 64.976501%, 17.370605%)" offset="0.746094"/><stop stop-opacity="1" stop-color="rgb(59.686279%, 64.831543%, 17.527771%)" offset="0.75"/><stop stop-opacity="1" stop-color="rgb(59.062195%, 64.68811%, 17.683411%)" offset="0.753906"/><stop stop-opacity="1" stop-color="rgb(58.436584%, 64.544678%, 17.83905%)" offset="0.757812"/><stop stop-opacity="1" stop-color="rgb(57.810974%, 64.399719%, 17.996216%)" offset="0.761719"/><stop stop-opacity="1" stop-color="rgb(57.18689%, 64.256287%, 18.151855%)" offset="0.765625"/><stop stop-opacity="1" stop-color="rgb(56.561279%, 64.111328%, 18.309021%)" offset="0.769531"/><stop stop-opacity="1" stop-color="rgb(55.937195%, 63.967896%, 18.464661%)" offset="0.773438"/><stop stop-opacity="1" stop-color="rgb(55.311584%, 63.824463%, 18.6203%)" offset="0.777344"/><stop stop-opacity="1" stop-color="rgb(54.685974%, 63.679504%, 18.777466%)" offset="0.78125"/><stop stop-opacity="1" stop-color="rgb(54.06189%, 63.536072%, 18.933105%)" offset="0.785156"/><stop stop-opacity="1" stop-color="rgb(53.436279%, 63.392639%, 19.090271%)" offset="0.789062"/><stop stop-opacity="1" stop-color="rgb(52.812195%, 63.247681%, 19.245911%)" offset="0.792969"/><stop stop-opacity="1" stop-color="rgb(52.186584%, 63.104248%, 19.40155%)" offset="0.796875"/><stop stop-opacity="1" stop-color="rgb(51.560974%, 62.960815%, 19.558716%)" offset="0.800781"/><stop stop-opacity="1" stop-color="rgb(50.93689%, 62.815857%, 19.714355%)" offset="0.804688"/><stop stop-opacity="1" stop-color="rgb(50.311279%, 62.672424%, 19.871521%)" offset="0.808594"/><stop stop-opacity="1" stop-color="rgb(49.687195%, 62.527466%, 20.027161%)" offset="0.8125"/><stop stop-opacity="1" stop-color="rgb(49.061584%, 62.384033%, 20.1828%)" offset="0.816406"/><stop stop-opacity="1" stop-color="rgb(48.435974%, 62.240601%, 20.339966%)" offset="0.820312"/><stop stop-opacity="1" stop-color="rgb(47.81189%, 62.095642%, 20.495605%)" offset="0.824219"/><stop stop-opacity="1" stop-color="rgb(47.186279%, 61.952209%, 20.652771%)" offset="0.828125"/><stop stop-opacity="1" stop-color="rgb(46.562195%, 61.808777%, 20.808411%)" offset="0.832031"/><stop stop-opacity="1" stop-color="rgb(45.936584%, 61.663818%, 20.96405%)" offset="0.835938"/><stop stop-opacity="1" stop-color="rgb(45.310974%, 61.520386%, 21.121216%)" offset="0.839844"/><stop stop-opacity="1" stop-color="rgb(44.68689%, 61.376953%, 21.276855%)" offset="0.84375"/><stop stop-opacity="1" stop-color="rgb(44.061279%, 61.231995%, 21.434021%)" offset="0.847656"/><stop stop-opacity="1" stop-color="rgb(43.437195%, 61.088562%, 21.589661%)" offset="0.851562"/><stop stop-opacity="1" stop-color="rgb(42.811584%, 60.945129%, 21.7453%)" offset="0.855469"/><stop stop-opacity="1" stop-color="rgb(42.185974%, 60.800171%, 21.902466%)" offset="0.859375"/><stop stop-opacity="1" stop-color="rgb(41.56189%, 60.656738%, 22.058105%)" offset="0.863281"/><stop stop-opacity="1" stop-color="rgb(40.936279%, 60.51178%, 22.215271%)" offset="0.867188"/><stop stop-opacity="1" stop-color="rgb(40.312195%, 60.368347%, 22.370911%)" offset="0.871094"/><stop stop-opacity="1" stop-color="rgb(39.686584%, 60.224915%, 22.52655%)" offset="0.875"/><stop stop-opacity="1" stop-color="rgb(39.060974%, 60.079956%, 22.683716%)" offset="0.878906"/><stop stop-opacity="1" stop-color="rgb(38.43689%, 59.936523%, 22.839355%)" offset="0.882812"/><stop stop-opacity="1" stop-color="rgb(37.811279%, 59.793091%, 22.996521%)" offset="0.886719"/><stop stop-opacity="1" stop-color="rgb(37.187195%, 59.648132%, 23.152161%)" offset="0.890625"/><stop stop-opacity="1" stop-color="rgb(36.561584%, 59.5047%, 23.3078%)" offset="0.894531"/><stop stop-opacity="1" stop-color="rgb(35.935974%, 59.361267%, 23.464966%)" offset="0.898438"/><stop stop-opacity="1" stop-color="rgb(35.31189%, 59.216309%, 23.620605%)" offset="0.902344"/><stop stop-opacity="1" stop-color="rgb(34.686279%, 59.072876%, 23.777771%)" offset="0.90625"/><stop stop-opacity="1" stop-color="rgb(34.062195%, 58.927917%, 23.933411%)" offset="0.910156"/><stop stop-opacity="1" stop-color="rgb(33.436584%, 58.784485%, 24.08905%)" offset="0.914062"/><stop stop-opacity="1" stop-color="rgb(32.810974%, 58.641052%, 24.246216%)" offset="0.917969"/><stop stop-opacity="1" stop-color="rgb(32.18689%, 58.496094%, 24.401855%)" offset="0.921875"/><stop stop-opacity="1" stop-color="rgb(31.561279%, 58.352661%, 24.559021%)" offset="0.925781"/><stop stop-opacity="1" stop-color="rgb(30.937195%, 58.209229%, 24.714661%)" offset="0.929688"/><stop stop-opacity="1" stop-color="rgb(30.311584%, 58.06427%, 24.8703%)" offset="0.933594"/><stop stop-opacity="1" stop-color="rgb(29.685974%, 57.920837%, 25.027466%)" offset="0.9375"/><stop stop-opacity="1" stop-color="rgb(29.06189%, 57.777405%, 25.183105%)" offset="0.941406"/><stop stop-opacity="1" stop-color="rgb(28.436279%, 57.632446%, 25.340271%)" offset="0.945312"/><stop stop-opacity="1" stop-color="rgb(27.812195%, 57.489014%, 25.495911%)" offset="0.949219"/><stop stop-opacity="1" stop-color="rgb(27.186584%, 57.344055%, 25.65155%)" offset="0.953125"/><stop stop-opacity="1" stop-color="rgb(26.560974%, 57.200623%, 25.808716%)" offset="0.957031"/><stop stop-opacity="1" stop-color="rgb(25.93689%, 57.05719%, 25.964355%)" offset="0.960938"/><stop stop-opacity="1" stop-color="rgb(25.311279%, 56.912231%, 26.121521%)" offset="0.964844"/><stop stop-opacity="1" stop-color="rgb(24.687195%, 56.768799%, 26.277161%)" offset="0.96875"/><stop stop-opacity="1" stop-color="rgb(24.061584%, 56.625366%, 26.4328%)" offset="0.972656"/><stop stop-opacity="1" stop-color="rgb(23.435974%, 56.480408%, 26.589966%)" offset="0.976562"/><stop stop-opacity="1" stop-color="rgb(22.81189%, 56.336975%, 26.745605%)" offset="0.980469"/><stop stop-opacity="1" stop-color="rgb(22.186279%, 56.193542%, 26.902771%)" offset="0.984375"/><stop stop-opacity="1" stop-color="rgb(21.562195%, 56.048584%, 27.058411%)" offset="0.988281"/><stop stop-opacity="1" stop-color="rgb(20.936584%, 55.905151%, 27.21405%)" offset="0.992188"/><stop stop-opacity="1" stop-color="rgb(20.310974%, 55.760193%, 27.371216%)" offset="0.996094"/><stop stop-opacity="1" stop-color="rgb(19.999695%, 55.688477%, 27.449036%)" offset="1"/></radialGradient><clipPath id="65c8014d3c"><rect x="0" width="1197" y="0" height="7"/></clipPath></defs><g fill="#222222" fill-opacity="1"><g transform="translate(101.387736, 655.176409)"><g><path d="M 284.734375 -209.15625 C 278.867188 -224.925781 271.191406 -239.472656 261.703125 -252.796875 C 252.210938 -266.128906 243.835938 -273.492188 236.578125 -274.890625 L 220.453125 -275.9375 L 203.703125 -276.5625 L 200.140625 -276.5625 L 200.140625 -46.6875 C 200.140625 -35.238281 204.609375 -27.84375 213.546875 -24.5 C 215.078125 -23.800781 216.890625 -23.132812 218.984375 -22.5 C 221.078125 -21.875 229.242188 -20.097656 243.484375 -17.171875 L 243.484375 0 L 60.5 0 L 60.5 -17.171875 L 67.828125 -18.21875 C 81.367188 -19.75 89.1875 -20.929688 91.28125 -21.765625 C 100.207031 -25.816406 104.671875 -33.425781 104.671875 -44.59375 L 104.671875 -276.5625 L 101.125 -276.5625 L 84.375 -275.9375 L 67.828125 -274.890625 C 60.710938 -273.628906 52.546875 -266.4375 43.328125 -253.3125 C 34.117188 -240.195312 26.097656 -225.476562 19.265625 -209.15625 L 2.09375 -209.15625 L 2.09375 -297.078125 L 302.3125 -297.078125 L 302.3125 -209.15625 Z M 284.734375 -209.15625 "/></g></g></g><g transform="matrix(1, 0, 0, 1, 416, 303)"><g clip-path="url(#30a8fb4fd9)"><g fill="#222222" fill-opacity="1"><g transform="translate(0.609062, 199.155595)"><g><path d="M 11.734375 -144.0625 L 60.296875 -144.0625 L 60.296875 0 L 11.734375 0 Z M 11.734375 -144.0625 "/></g></g></g><g fill="#222222" fill-opacity="1"><g transform="translate(72.643138, 199.155595)"><g><path d="M 107.015625 -75.9375 L 149.21875 -75.9375 L 149.21875 -15.03125 C 140.707031 -9.125 130.828125 -4.59375 119.578125 -1.4375 C 108.328125 1.71875 97.28125 3.296875 86.4375 3.296875 C 71.070312 3.296875 57.28125 0.109375 45.0625 -6.265625 C 32.851562 -12.648438 23.285156 -21.570312 16.359375 -33.03125 C 9.429688 -44.488281 5.96875 -57.488281 5.96875 -72.03125 C 5.96875 -86.570312 9.429688 -99.570312 16.359375 -111.03125 C 23.285156 -122.488281 32.957031 -131.40625 45.375 -137.78125 C 57.789062 -144.164062 71.820312 -147.359375 87.46875 -147.359375 C 101.601562 -147.359375 114.257812 -144.988281 125.4375 -140.25 C 136.625 -135.519531 145.921875 -128.628906 153.328125 -119.578125 L 122.25 -92.203125 C 113.195312 -102.765625 102.425781 -108.046875 89.9375 -108.046875 C 79.238281 -108.046875 70.734375 -104.820312 64.421875 -98.375 C 58.109375 -91.925781 54.953125 -83.144531 54.953125 -72.03125 C 54.953125 -61.195312 58.070312 -52.484375 64.3125 -45.890625 C 70.5625 -39.304688 78.898438 -36.015625 89.328125 -36.015625 C 95.492188 -36.015625 101.390625 -37.179688 107.015625 -39.515625 Z M 107.015625 -75.9375 "/></g></g></g><g fill="#222222" fill-opacity="1"><g transform="translate(230.91227, 199.155595)"><g><path d="M 131.515625 -36.640625 L 131.515625 0 L 11.734375 0 L 11.734375 -144.0625 L 128.84375 -144.0625 L 128.84375 -107.4375 L 59.484375 -107.4375 L 59.484375 -90.5625 L 120.40625 -90.5625 L 120.40625 -55.5625 L 59.484375 -55.5625 L 59.484375 -36.640625 Z M 131.515625 -36.640625 "/></g></g></g><g fill="#222222" fill-opacity="1"><g transform="translate(369.42351, 199.155595)"><g><path d="M 73.46875 -36.21875 L 60.296875 -36.21875 L 60.296875 0 L 11.734375 0 L 11.734375 -144.0625 L 81.09375 -144.0625 C 94.394531 -144.0625 105.984375 -141.863281 115.859375 -137.46875 C 125.742188 -133.082031 133.363281 -126.773438 138.71875 -118.546875 C 144.070312 -110.316406 146.75 -100.710938 146.75 -89.734375 C 146.75 -79.441406 144.414062 -70.453125 139.75 -62.765625 C 135.082031 -55.085938 128.359375 -48.984375 119.578125 -44.453125 L 149.828125 0 L 97.96875 0 Z M 97.765625 -89.734375 C 97.765625 -95.085938 96.113281 -99.238281 92.8125 -102.1875 C 89.519531 -105.132812 84.582031 -106.609375 78 -106.609375 L 60.296875 -106.609375 L 60.296875 -72.859375 L 78 -72.859375 C 84.582031 -72.859375 89.519531 -74.332031 92.8125 -77.28125 C 96.113281 -80.226562 97.765625 -84.378906 97.765625 -89.734375 Z M 97.765625 -89.734375 "/></g></g></g><g fill="#222222" fill-opacity="1"><g transform="translate(522.75318, 199.155595)"><g/></g></g><g fill="#222222" fill-opacity="1"><g transform="translate(584.496657, 199.155595)"><g><path d="M 43.015625 -106.40625 L 0.828125 -106.40625 L 0.828125 -144.0625 L 133.78125 -144.0625 L 133.78125 -106.40625 L 91.59375 -106.40625 L 91.59375 0 L 43.015625 0 Z M 43.015625 -106.40625 "/></g></g></g><g fill="#222222" fill-opacity="1"><g transform="translate(711.894049, 199.155595)"><g><path d="M 109.90625 -25.109375 L 55.15625 -25.109375 L 45.484375 0 L -3.90625 0 L 59.0625 -144.0625 L 106.8125 -144.0625 L 169.796875 0 L 119.578125 0 Z M 96.53125 -60.09375 L 82.53125 -96.3125 L 68.53125 -60.09375 Z M 96.53125 -60.09375 "/></g></g></g><g fill="#222222" fill-opacity="1"><g transform="translate(877.778225, 199.155595)"><g><path d="M 153.734375 -144.0625 L 153.734375 0 L 113.8125 0 L 59.0625 -65.453125 L 59.0625 0 L 11.734375 0 L 11.734375 -144.0625 L 51.65625 -144.0625 L 106.40625 -78.625 L 106.40625 -144.0625 Z M 153.734375 -144.0625 "/></g></g></g><g fill="#222222" fill-opacity="1"><g transform="translate(1043.250763, 199.155595)"><g><path d="M 70.390625 -47.75 L 59.484375 -35.609375 L 59.484375 0 L 11.734375 0 L 11.734375 -144.0625 L 59.484375 -144.0625 L 59.484375 -91.796875 L 106.8125 -144.0625 L 159.703125 -144.0625 L 102.078125 -80.671875 L 162.59375 0 L 106.40625 0 Z M 70.390625 -47.75 "/></g></g></g></g></g><g clip-path="url(#226da31011)"><g transform="matrix(1, 0, 0, 1, 425, 542)"><g clip-path="url(#65c8014d3c)"><g clip-path="url(#5148e9d862)"><path fill="url(#835a385f60)" d="M 0.671875 0.621094 L 0.671875 6.941406 L 1196.640625 6.941406 L 1196.640625 0.621094 Z M 0.671875 0.621094 " fill-rule="nonzero"/></g></g></g></g><g fill="#222222" fill-opacity="1"><g transform="translate(424.923838, 645.517892)"><g><path d="M 43.640625 -12.28125 C 43.640625 -9.882812 43.078125 -7.695312 41.953125 -5.71875 C 40.828125 -3.75 38.90625 -2.1875 36.1875 -1.03125 C 33.476562 0.113281 29.738281 0.6875 24.96875 0.6875 C 19.3125 0.6875 14.882812 -0.09375 11.6875 -1.65625 C 8.488281 -3.21875 6.234375 -5.421875 4.921875 -8.265625 C 3.617188 -11.117188 2.96875 -14.429688 2.96875 -18.203125 L 8.625 -18.203125 C 8.625 -14.390625 9.273438 -11.457031 10.578125 -9.40625 C 11.890625 -7.363281 13.765625 -5.972656 16.203125 -5.234375 C 18.640625 -4.503906 21.5625 -4.140625 24.96875 -4.140625 C 29.101562 -4.140625 32.304688 -4.710938 34.578125 -5.859375 C 36.859375 -7.003906 38 -9.050781 38 -12 C 38 -13.832031 37.515625 -15.347656 36.546875 -16.546875 C 35.578125 -17.742188 34.3125 -18.734375 32.75 -19.515625 C 31.1875 -20.296875 29.4375 -20.960938 27.5 -21.515625 C 25.570312 -22.066406 23.644531 -22.617188 21.71875 -23.171875 C 18.550781 -24.128906 15.710938 -25.148438 13.203125 -26.234375 C 10.703125 -27.316406 8.738281 -28.71875 7.3125 -30.4375 C 5.882812 -32.164062 5.171875 -34.453125 5.171875 -37.296875 C 5.171875 -41.023438 6.550781 -43.957031 9.3125 -46.09375 C 12.070312 -48.226562 16.4375 -49.296875 22.40625 -49.296875 C 25.988281 -49.296875 29.007812 -48.800781 31.46875 -47.8125 C 33.9375 -46.832031 35.914062 -45.535156 37.40625 -43.921875 C 38.894531 -42.316406 39.972656 -40.523438 40.640625 -38.546875 C 41.304688 -36.566406 41.640625 -34.585938 41.640625 -32.609375 L 36 -32.609375 C 36 -35.367188 35.390625 -37.625 34.171875 -39.375 C 32.953125 -41.125 31.304688 -42.410156 29.234375 -43.234375 C 27.171875 -44.054688 24.894531 -44.46875 22.40625 -44.46875 C 20.195312 -44.46875 18.21875 -44.257812 16.46875 -43.84375 C 14.726562 -43.4375 13.351562 -42.710938 12.34375 -41.671875 C 11.332031 -40.640625 10.828125 -39.226562 10.828125 -37.4375 C 10.828125 -35.738281 11.296875 -34.347656 12.234375 -33.265625 C 13.179688 -32.191406 14.5625 -31.25 16.375 -30.4375 C 18.1875 -29.632812 20.425781 -28.820312 23.09375 -28 C 25.488281 -27.257812 27.890625 -26.488281 30.296875 -25.6875 C 32.710938 -24.882812 34.929688 -23.929688 36.953125 -22.828125 C 38.984375 -21.722656 40.601562 -20.316406 41.8125 -18.609375 C 43.03125 -16.910156 43.640625 -14.800781 43.640625 -12.28125 Z M 43.640625 -12.28125 "/></g></g></g><g fill="#222222" fill-opacity="1"><g transform="translate(471.398928, 645.517892)"><g><path d="M 14.75 -29.4375 L 14.75 -4.0625 L 26.828125 -4.828125 L 26.828125 0 L 13.859375 0.6875 C 12.253906 0.78125 11.070312 0.414062 10.3125 -0.40625 C 9.550781 -1.238281 9.171875 -2.4375 9.171875 -4 L 9.171875 -29.4375 L 1.578125 -29.4375 L 1.578125 -34.265625 L 9.171875 -34.265625 L 9.171875 -43.09375 L 14.75 -44.8125 L 14.75 -34.265625 L 25.4375 -34.265625 L 25.4375 -29.4375 Z M 14.75 -29.4375 "/></g></g></g><g fill="#222222" fill-opacity="1"><g transform="translate(500.566486, 645.517892)"><g><path d="M 18.6875 -4.140625 C 21.125 -4.140625 23.257812 -4.75 25.09375 -5.96875 C 26.9375 -7.1875 28.382812 -8.910156 29.4375 -11.140625 C 30.5 -13.367188 31.03125 -16 31.03125 -19.03125 L 31.03125 -34.265625 L 36.609375 -34.265625 L 36.609375 0 L 31.03125 0 L 31.03125 -5.9375 L 31.921875 -9.859375 L 30.34375 -9.859375 C 29.65625 -6.773438 28.21875 -4.242188 26.03125 -2.265625 C 23.84375 -0.296875 20.890625 0.6875 17.171875 0.6875 C 13.265625 0.6875 10.148438 -0.457031 7.828125 -2.75 C 5.503906 -5.050781 4.34375 -8.570312 4.34375 -13.3125 L 4.34375 -34.265625 L 10 -34.265625 L 10 -14.0625 C 10 -10.476562 10.707031 -7.925781 12.125 -6.40625 C 13.550781 -4.894531 15.738281 -4.140625 18.6875 -4.140625 Z M 18.6875 -4.140625 "/></g></g></g><g fill="#222222" fill-opacity="1"><g transform="translate(541.249411, 645.517892)"><g><path d="M 40.203125 -50.6875 L 40.203125 0 L 34.546875 0 L 34.546875 -5.03125 L 35.515625 -8.890625 L 33.859375 -8.890625 C 33.117188 -6.222656 31.597656 -3.957031 29.296875 -2.09375 C 27.003906 -0.238281 23.90625 0.6875 20 0.6875 C 16.6875 0.6875 13.8125 -0.09375 11.375 -1.65625 C 8.9375 -3.21875 7.039062 -5.34375 5.6875 -8.03125 C 4.332031 -10.71875 3.65625 -13.765625 3.65625 -17.171875 C 3.65625 -20.566406 4.332031 -23.597656 5.6875 -26.265625 C 7.039062 -28.929688 8.9375 -31.046875 11.375 -32.609375 C 13.8125 -34.171875 16.6875 -34.953125 20 -34.953125 C 23.90625 -34.953125 27.003906 -34.019531 29.296875 -32.15625 C 31.597656 -30.300781 33.117188 -28.019531 33.859375 -25.3125 L 35.515625 -25.3125 L 34.546875 -29.234375 L 34.546875 -50.6875 Z M 34.546875 -17.171875 C 34.546875 -20.203125 33.957031 -22.671875 32.78125 -24.578125 C 31.613281 -26.484375 30.0625 -27.882812 28.125 -28.78125 C 26.195312 -29.675781 24.039062 -30.125 21.65625 -30.125 C 18.113281 -30.125 15.171875 -29.101562 12.828125 -27.0625 C 10.484375 -25.019531 9.3125 -21.722656 9.3125 -17.171875 C 9.3125 -12.578125 10.484375 -9.253906 12.828125 -7.203125 C 15.171875 -5.160156 18.113281 -4.140625 21.65625 -4.140625 C 24.039062 -4.140625 26.195312 -4.585938 28.125 -5.484375 C 30.0625 -6.378906 31.613281 -7.789062 32.78125 -9.71875 C 33.957031 -11.65625 34.546875 -14.140625 34.546875 -17.171875 Z M 34.546875 -17.171875 "/></g></g></g><g fill="#222222" fill-opacity="1"><g transform="translate(586.069575, 645.517892)"><g><path d="M 3.65625 -17.578125 C 3.65625 -21.253906 4.363281 -24.390625 5.78125 -26.984375 C 7.207031 -29.585938 9.175781 -31.566406 11.6875 -32.921875 C 14.195312 -34.273438 17.054688 -34.953125 20.265625 -34.953125 C 25.097656 -34.953125 28.972656 -33.492188 31.890625 -30.578125 C 34.804688 -27.660156 36.265625 -23.554688 36.265625 -18.265625 L 36.265625 -16.0625 L 9.171875 -16.0625 C 9.304688 -13.90625 9.765625 -11.90625 10.546875 -10.0625 C 11.328125 -8.226562 12.578125 -6.757812 14.296875 -5.65625 C 16.023438 -4.550781 18.289062 -4 21.09375 -4 C 23.945312 -4 26.289062 -4.675781 28.125 -6.03125 C 29.96875 -7.382812 31.1875 -9.375 31.78125 -12 L 37.4375 -12 C 37.113281 -10.664062 36.582031 -9.257812 35.84375 -7.78125 C 35.113281 -6.3125 34.113281 -4.929688 32.84375 -3.640625 C 31.582031 -2.359375 29.988281 -1.316406 28.0625 -0.515625 C 26.132812 0.285156 23.8125 0.6875 21.09375 0.6875 C 17.007812 0.6875 13.675781 -0.148438 11.09375 -1.828125 C 8.519531 -3.503906 6.632812 -5.734375 5.4375 -8.515625 C 4.25 -11.296875 3.65625 -14.316406 3.65625 -17.578125 Z M 9.171875 -20.34375 L 30.75 -20.34375 C 30.75 -23.101562 29.851562 -25.4375 28.0625 -27.34375 C 26.269531 -29.25 23.671875 -30.203125 20.265625 -30.203125 C 16.910156 -30.203125 14.222656 -29.25 12.203125 -27.34375 C 10.179688 -25.4375 9.171875 -23.101562 9.171875 -20.34375 Z M 9.171875 -20.34375 "/></g></g></g><g fill="#222222" fill-opacity="1"><g transform="translate(626.269798, 645.517892)"><g><path d="M 23.03125 -30.125 C 19.394531 -30.125 16.425781 -28.789062 14.125 -26.125 C 11.832031 -23.46875 10.6875 -19.816406 10.6875 -15.171875 L 10.6875 0 L 5.03125 0 L 5.03125 -34.265625 L 10.6875 -34.265625 L 10.6875 -28.34375 L 9.796875 -24.40625 L 11.375 -24.40625 C 12.0625 -27.53125 13.5 -30.066406 15.6875 -32.015625 C 17.875 -33.972656 20.828125 -34.953125 24.546875 -34.953125 C 28.410156 -34.953125 31.5 -33.816406 33.8125 -31.546875 C 36.132812 -29.273438 37.296875 -25.75 37.296875 -20.96875 L 37.296875 0 L 31.71875 0 L 31.71875 -20.203125 C 31.71875 -23.785156 31.003906 -26.332031 29.578125 -27.84375 C 28.148438 -29.363281 25.96875 -30.125 23.03125 -30.125 Z M 23.03125 -30.125 "/></g></g></g><g fill="#222222" fill-opacity="1"><g transform="translate(667.297454, 645.517892)"><g><path d="M 14.75 -29.4375 L 14.75 -4.0625 L 26.828125 -4.828125 L 26.828125 0 L 13.859375 0.6875 C 12.253906 0.78125 11.070312 0.414062 10.3125 -0.40625 C 9.550781 -1.238281 9.171875 -2.4375 9.171875 -4 L 9.171875 -29.4375 L 1.578125 -29.4375 L 1.578125 -34.265625 L 9.171875 -34.265625 L 9.171875 -43.09375 L 14.75 -44.8125 L 14.75 -34.265625 L 25.4375 -34.265625 L 25.4375 -29.4375 Z M 14.75 -29.4375 "/></g></g></g><g fill="#222222" fill-opacity="1"><g transform="translate(697.154603, 645.517892)"><g/></g></g><g fill="#222222" fill-opacity="1"><g transform="translate(720.047364, 645.517892)"><g><path d="M 35.171875 0 L 5.03125 0 L 5.03125 -48.609375 L 35.171875 -48.609375 L 35.171875 -43.78125 L 10.6875 -43.78125 L 10.6875 -26.75 L 31.71875 -26.75 L 31.71875 -21.921875 L 10.6875 -21.921875 L 10.6875 -4.828125 L 35.171875 -4.828125 Z M 35.171875 0 "/></g></g></g><g fill="#222222" fill-opacity="1"><g transform="translate(758.730643, 645.517892)"><g><path d="M 23.03125 -30.125 C 19.394531 -30.125 16.425781 -28.789062 14.125 -26.125 C 11.832031 -23.46875 10.6875 -19.816406 10.6875 -15.171875 L 10.6875 0 L 5.03125 0 L 5.03125 -34.265625 L 10.6875 -34.265625 L 10.6875 -28.34375 L 9.796875 -24.40625 L 11.375 -24.40625 C 12.0625 -27.53125 13.5 -30.066406 15.6875 -32.015625 C 17.875 -33.972656 20.828125 -34.953125 24.546875 -34.953125 C 28.410156 -34.953125 31.5 -33.816406 33.8125 -31.546875 C 36.132812 -29.273438 37.296875 -25.75 37.296875 -20.96875 L 37.296875 0 L 31.71875 0 L 31.71875 -20.203125 C 31.71875 -23.785156 31.003906 -26.332031 29.578125 -27.84375 C 28.148438 -29.363281 25.96875 -30.125 23.03125 -30.125 Z M 23.03125 -30.125 "/></g></g></g><g fill="#222222" fill-opacity="1"><g transform="translate(799.7583, 645.517892)"><g><path d="M 14.75 -29.4375 L 14.75 -4.0625 L 26.828125 -4.828125 L 26.828125 0 L 13.859375 0.6875 C 12.253906 0.78125 11.070312 0.414062 10.3125 -0.40625 C 9.550781 -1.238281 9.171875 -2.4375 9.171875 -4 L 9.171875 -29.4375 L 1.578125 -29.4375 L 1.578125 -34.265625 L 9.171875 -34.265625 L 9.171875 -43.09375 L 14.75 -44.8125 L 14.75 -34.265625 L 25.4375 -34.265625 L 25.4375 -29.4375 Z M 14.75 -29.4375 "/></g></g></g><g fill="#222222" fill-opacity="1"><g transform="translate(829.408573, 645.517892)"><g><path d="M 10.6875 0 L 5.03125 0 L 5.03125 -30.203125 C 5.03125 -33.460938 6.617188 -35.023438 9.796875 -34.890625 L 28.828125 -34.265625 L 28.828125 -29.4375 L 10.6875 -30.0625 Z M 10.6875 0 "/></g></g></g><g fill="#222222" fill-opacity="1"><g transform="translate(857.40384, 645.517892)"><g><path d="M 3.65625 -17.578125 C 3.65625 -21.253906 4.363281 -24.390625 5.78125 -26.984375 C 7.207031 -29.585938 9.175781 -31.566406 11.6875 -32.921875 C 14.195312 -34.273438 17.054688 -34.953125 20.265625 -34.953125 C 25.097656 -34.953125 28.972656 -33.492188 31.890625 -30.578125 C 34.804688 -27.660156 36.265625 -23.554688 36.265625 -18.265625 L 36.265625 -16.0625 L 9.171875 -16.0625 C 9.304688 -13.90625 9.765625 -11.90625 10.546875 -10.0625 C 11.328125 -8.226562 12.578125 -6.757812 14.296875 -5.65625 C 16.023438 -4.550781 18.289062 -4 21.09375 -4 C 23.945312 -4 26.289062 -4.675781 28.125 -6.03125 C 29.96875 -7.382812 31.1875 -9.375 31.78125 -12 L 37.4375 -12 C 37.113281 -10.664062 36.582031 -9.257812 35.84375 -7.78125 C 35.113281 -6.3125 34.113281 -4.929688 32.84375 -3.640625 C 31.582031 -2.359375 29.988281 -1.316406 28.0625 -0.515625 C 26.132812 0.285156 23.8125 0.6875 21.09375 0.6875 C 17.007812 0.6875 13.675781 -0.148438 11.09375 -1.828125 C 8.519531 -3.503906 6.632812 -5.734375 5.4375 -8.515625 C 4.25 -11.296875 3.65625 -14.316406 3.65625 -17.578125 Z M 9.171875 -20.34375 L 30.75 -20.34375 C 30.75 -23.101562 29.851562 -25.4375 28.0625 -27.34375 C 26.269531 -29.25 23.671875 -30.203125 20.265625 -30.203125 C 16.910156 -30.203125 14.222656 -29.25 12.203125 -27.34375 C 10.179688 -25.4375 9.171875 -23.101562 9.171875 -20.34375 Z M 9.171875 -20.34375 "/></g></g></g><g fill="#222222" fill-opacity="1"><g transform="translate(898.017768, 645.517892)"><g><path d="M 5.03125 12.546875 L 5.03125 -34.265625 L 10.6875 -34.265625 L 10.6875 -29.234375 L 9.796875 -25.3125 L 11.375 -25.3125 C 12.113281 -28.019531 13.628906 -30.300781 15.921875 -32.15625 C 18.222656 -34.019531 21.328125 -34.953125 25.234375 -34.953125 C 28.546875 -34.953125 31.429688 -34.171875 33.890625 -32.609375 C 36.347656 -31.046875 38.242188 -28.921875 39.578125 -26.234375 C 40.910156 -23.546875 41.578125 -20.5 41.578125 -17.09375 C 41.578125 -13.738281 40.910156 -10.71875 39.578125 -8.03125 C 38.242188 -5.34375 36.347656 -3.21875 33.890625 -1.65625 C 31.429688 -0.09375 28.546875 0.6875 25.234375 0.6875 C 21.328125 0.6875 18.222656 -0.238281 15.921875 -2.09375 C 13.628906 -3.957031 12.113281 -6.222656 11.375 -8.890625 L 9.796875 -8.890625 L 10.6875 -5.03125 L 10.6875 12.546875 Z M 10.6875 -17.09375 C 10.6875 -14.0625 11.269531 -11.59375 12.4375 -9.6875 C 13.613281 -7.78125 15.175781 -6.378906 17.125 -5.484375 C 19.082031 -4.585938 21.234375 -4.140625 23.578125 -4.140625 C 27.117188 -4.140625 30.0625 -5.179688 32.40625 -7.265625 C 34.75 -9.359375 35.921875 -12.632812 35.921875 -17.09375 C 35.921875 -21.601562 34.75 -24.898438 32.40625 -26.984375 C 30.0625 -29.078125 27.117188 -30.125 23.578125 -30.125 C 21.234375 -30.125 19.082031 -29.675781 17.125 -28.78125 C 15.175781 -27.882812 13.613281 -26.484375 12.4375 -24.578125 C 11.269531 -22.671875 10.6875 -20.175781 10.6875 -17.09375 Z M 10.6875 -17.09375 "/></g></g></g><g fill="#222222" fill-opacity="1"><g transform="translate(942.35523, 645.517892)"><g><path d="M 10.6875 0 L 5.03125 0 L 5.03125 -30.203125 C 5.03125 -33.460938 6.617188 -35.023438 9.796875 -34.890625 L 28.828125 -34.265625 L 28.828125 -29.4375 L 10.6875 -30.0625 Z M 10.6875 0 "/></g></g></g><g fill="#222222" fill-opacity="1"><g transform="translate(970.350497, 645.517892)"><g><path d="M 3.65625 -17.578125 C 3.65625 -21.253906 4.363281 -24.390625 5.78125 -26.984375 C 7.207031 -29.585938 9.175781 -31.566406 11.6875 -32.921875 C 14.195312 -34.273438 17.054688 -34.953125 20.265625 -34.953125 C 25.097656 -34.953125 28.972656 -33.492188 31.890625 -30.578125 C 34.804688 -27.660156 36.265625 -23.554688 36.265625 -18.265625 L 36.265625 -16.0625 L 9.171875 -16.0625 C 9.304688 -13.90625 9.765625 -11.90625 10.546875 -10.0625 C 11.328125 -8.226562 12.578125 -6.757812 14.296875 -5.65625 C 16.023438 -4.550781 18.289062 -4 21.09375 -4 C 23.945312 -4 26.289062 -4.675781 28.125 -6.03125 C 29.96875 -7.382812 31.1875 -9.375 31.78125 -12 L 37.4375 -12 C 37.113281 -10.664062 36.582031 -9.257812 35.84375 -7.78125 C 35.113281 -6.3125 34.113281 -4.929688 32.84375 -3.640625 C 31.582031 -2.359375 29.988281 -1.316406 28.0625 -0.515625 C 26.132812 0.285156 23.8125 0.6875 21.09375 0.6875 C 17.007812 0.6875 13.675781 -0.148438 11.09375 -1.828125 C 8.519531 -3.503906 6.632812 -5.734375 5.4375 -8.515625 C 4.25 -11.296875 3.65625 -14.316406 3.65625 -17.578125 Z M 9.171875 -20.34375 L 30.75 -20.34375 C 30.75 -23.101562 29.851562 -25.4375 28.0625 -27.34375 C 26.269531 -29.25 23.671875 -30.203125 20.265625 -30.203125 C 16.910156 -30.203125 14.222656 -29.25 12.203125 -27.34375 C 10.179688 -25.4375 9.171875 -23.101562 9.171875 -20.34375 Z M 9.171875 -20.34375 "/></g></g></g><g fill="#222222" fill-opacity="1"><g transform="translate(1010.550674, 645.517892)"><g><path d="M 23.03125 -30.125 C 19.394531 -30.125 16.425781 -28.789062 14.125 -26.125 C 11.832031 -23.46875 10.6875 -19.816406 10.6875 -15.171875 L 10.6875 0 L 5.03125 0 L 5.03125 -34.265625 L 10.6875 -34.265625 L 10.6875 -28.34375 L 9.796875 -24.40625 L 11.375 -24.40625 C 12.0625 -27.53125 13.5 -30.066406 15.6875 -32.015625 C 17.875 -33.972656 20.828125 -34.953125 24.546875 -34.953125 C 28.410156 -34.953125 31.5 -33.816406 33.8125 -31.546875 C 36.132812 -29.273438 37.296875 -25.75 37.296875 -20.96875 L 37.296875 0 L 31.71875 0 L 31.71875 -20.203125 C 31.71875 -23.785156 31.003906 -26.332031 29.578125 -27.84375 C 28.148438 -29.363281 25.96875 -30.125 23.03125 -30.125 Z M 23.03125 -30.125 "/></g></g></g><g fill="#222222" fill-opacity="1"><g transform="translate(1051.923155, 645.517892)"><g><path d="M 3.65625 -17.578125 C 3.65625 -21.253906 4.363281 -24.390625 5.78125 -26.984375 C 7.207031 -29.585938 9.175781 -31.566406 11.6875 -32.921875 C 14.195312 -34.273438 17.054688 -34.953125 20.265625 -34.953125 C 25.097656 -34.953125 28.972656 -33.492188 31.890625 -30.578125 C 34.804688 -27.660156 36.265625 -23.554688 36.265625 -18.265625 L 36.265625 -16.0625 L 9.171875 -16.0625 C 9.304688 -13.90625 9.765625 -11.90625 10.546875 -10.0625 C 11.328125 -8.226562 12.578125 -6.757812 14.296875 -5.65625 C 16.023438 -4.550781 18.289062 -4 21.09375 -4 C 23.945312 -4 26.289062 -4.675781 28.125 -6.03125 C 29.96875 -7.382812 31.1875 -9.375 31.78125 -12 L 37.4375 -12 C 37.113281 -10.664062 36.582031 -9.257812 35.84375 -7.78125 C 35.113281 -6.3125 34.113281 -4.929688 32.84375 -3.640625 C 31.582031 -2.359375 29.988281 -1.316406 28.0625 -0.515625 C 26.132812 0.285156 23.8125 0.6875 21.09375 0.6875 C 17.007812 0.6875 13.675781 -0.148438 11.09375 -1.828125 C 8.519531 -3.503906 6.632812 -5.734375 5.4375 -8.515625 C 4.25 -11.296875 3.65625 -14.316406 3.65625 -17.578125 Z M 9.171875 -20.34375 L 30.75 -20.34375 C 30.75 -23.101562 29.851562 -25.4375 28.0625 -27.34375 C 26.269531 -29.25 23.671875 -30.203125 20.265625 -30.203125 C 16.910156 -30.203125 14.222656 -29.25 12.203125 -27.34375 C 10.179688 -25.4375 9.171875 -23.101562 9.171875 -20.34375 Z M 9.171875 -20.34375 "/></g></g></g><g fill="#222222" fill-opacity="1"><g transform="translate(1092.123377, 645.517892)"><g><path d="M 18.6875 -4.140625 C 21.125 -4.140625 23.257812 -4.75 25.09375 -5.96875 C 26.9375 -7.1875 28.382812 -8.910156 29.4375 -11.140625 C 30.5 -13.367188 31.03125 -16 31.03125 -19.03125 L 31.03125 -34.265625 L 36.609375 -34.265625 L 36.609375 0 L 31.03125 0 L 31.03125 -5.9375 L 31.921875 -9.859375 L 30.34375 -9.859375 C 29.65625 -6.773438 28.21875 -4.242188 26.03125 -2.265625 C 23.84375 -0.296875 20.890625 0.6875 17.171875 0.6875 C 13.265625 0.6875 10.148438 -0.457031 7.828125 -2.75 C 5.503906 -5.050781 4.34375 -8.570312 4.34375 -13.3125 L 4.34375 -34.265625 L 10 -34.265625 L 10 -14.0625 C 10 -10.476562 10.707031 -7.925781 12.125 -6.40625 C 13.550781 -4.894531 15.738281 -4.140625 18.6875 -4.140625 Z M 18.6875 -4.140625 "/></g></g></g><g fill="#222222" fill-opacity="1"><g transform="translate(1132.806302, 645.517892)"><g><path d="M 10.6875 0 L 5.03125 0 L 5.03125 -30.203125 C 5.03125 -33.460938 6.617188 -35.023438 9.796875 -34.890625 L 28.828125 -34.265625 L 28.828125 -29.4375 L 10.6875 -30.0625 Z M 10.6875 0 "/></g></g></g><g fill="#222222" fill-opacity="1"><g transform="translate(1163.215081, 645.517892)"><g/></g></g><g fill="#222222" fill-opacity="1"><g transform="translate(1186.107842, 645.517892)"><g><path d="M 4.34375 -24.34375 C 4.34375 -29.070312 5.25 -33.3125 7.0625 -37.0625 C 8.882812 -40.8125 11.492188 -43.785156 14.890625 -45.984375 C 18.296875 -48.191406 22.363281 -49.296875 27.09375 -49.296875 C 31.226562 -49.296875 34.859375 -48.515625 37.984375 -46.953125 C 41.117188 -45.390625 43.640625 -43.148438 45.546875 -40.234375 C 47.453125 -37.316406 48.632812 -33.859375 49.09375 -29.859375 L 43.4375 -29.859375 C 42.882812 -34.503906 41.21875 -38.097656 38.4375 -40.640625 C 35.65625 -43.191406 31.875 -44.46875 27.09375 -44.46875 C 23.320312 -44.46875 20.171875 -43.601562 17.640625 -41.875 C 15.117188 -40.15625 13.210938 -37.78125 11.921875 -34.75 C 10.640625 -31.71875 10 -28.25 10 -24.34375 C 10 -20.4375 10.640625 -16.953125 11.921875 -13.890625 C 13.210938 -10.835938 15.117188 -8.445312 17.640625 -6.71875 C 20.171875 -5 23.320312 -4.140625 27.09375 -4.140625 C 31.875 -4.140625 35.65625 -5.425781 38.4375 -8 C 41.21875 -10.570312 42.882812 -14.179688 43.4375 -18.828125 L 49.09375 -18.828125 C 48.351562 -12.804688 46.050781 -8.046875 42.1875 -4.546875 C 38.332031 -1.054688 33.300781 0.6875 27.09375 0.6875 C 22.363281 0.6875 18.296875 -0.414062 14.890625 -2.625 C 11.492188 -4.832031 8.882812 -7.816406 7.0625 -11.578125 C 5.25 -15.347656 4.34375 -19.601562 4.34375 -24.34375 Z M 4.34375 -24.34375 "/></g></g></g><g fill="#222222" fill-opacity="1"><g transform="translate(1237.961275, 645.517892)"><g><path d="M 3.65625 -17.171875 C 3.65625 -20.484375 4.398438 -23.484375 5.890625 -26.171875 C 7.390625 -28.859375 9.503906 -30.992188 12.234375 -32.578125 C 14.972656 -34.160156 18.160156 -34.953125 21.796875 -34.953125 C 25.421875 -34.953125 28.578125 -34.160156 31.265625 -32.578125 C 33.953125 -30.992188 36.039062 -28.859375 37.53125 -26.171875 C 39.03125 -23.484375 39.78125 -20.484375 39.78125 -17.171875 C 39.78125 -13.859375 39.03125 -10.84375 37.53125 -8.125 C 36.039062 -5.414062 33.953125 -3.269531 31.265625 -1.6875 C 28.578125 -0.101562 25.421875 0.6875 21.796875 0.6875 C 18.160156 0.6875 14.972656 -0.101562 12.234375 -1.6875 C 9.503906 -3.269531 7.390625 -5.414062 5.890625 -8.125 C 4.398438 -10.84375 3.65625 -13.859375 3.65625 -17.171875 Z M 9.3125 -17.171875 C 9.3125 -14.773438 9.78125 -12.585938 10.71875 -10.609375 C 11.664062 -8.640625 13.066406 -7.066406 14.921875 -5.890625 C 16.785156 -4.722656 19.078125 -4.140625 21.796875 -4.140625 C 24.503906 -4.140625 26.773438 -4.722656 28.609375 -5.890625 C 30.453125 -7.066406 31.84375 -8.640625 32.78125 -10.609375 C 33.726562 -12.585938 34.203125 -14.773438 34.203125 -17.171875 C 34.203125 -19.554688 33.726562 -21.722656 32.78125 -23.671875 C 31.84375 -25.628906 30.453125 -27.191406 28.609375 -28.359375 C 26.773438 -29.535156 24.503906 -30.125 21.796875 -30.125 C 19.078125 -30.125 16.785156 -29.535156 14.921875 -28.359375 C 13.066406 -27.191406 11.664062 -25.628906 10.71875 -23.671875 C 9.78125 -21.722656 9.3125 -19.554688 9.3125 -17.171875 Z M 9.3125 -17.171875 "/></g></g></g><g fill="#222222" fill-opacity="1"><g transform="translate(1280.574871, 645.517892)"><g><path d="M 47.234375 -34.953125 C 49.617188 -34.953125 51.59375 -34.363281 53.15625 -33.1875 C 54.71875 -32.019531 55.890625 -30.4375 56.671875 -28.4375 C 57.460938 -26.4375 57.859375 -24.148438 57.859375 -21.578125 L 57.859375 0 L 52.203125 0 L 52.203125 -20.265625 C 52.203125 -23.578125 51.726562 -26.046875 50.78125 -27.671875 C 49.84375 -29.304688 47.972656 -30.125 45.171875 -30.125 C 41.765625 -30.125 39.09375 -28.742188 37.15625 -25.984375 C 35.226562 -23.234375 34.265625 -19.601562 34.265625 -15.09375 L 34.265625 0 L 28.609375 0 L 28.609375 -20.265625 C 28.609375 -23.578125 28.132812 -26.046875 27.1875 -27.671875 C 26.25 -29.304688 24.378906 -30.125 21.578125 -30.125 C 18.179688 -30.125 15.515625 -28.742188 13.578125 -25.984375 C 11.648438 -23.234375 10.6875 -19.601562 10.6875 -15.09375 L 10.6875 0 L 5.03125 0 L 5.03125 -34.265625 L 10.6875 -34.265625 L 10.6875 -28.40625 L 9.796875 -24.546875 L 11.375 -24.546875 C 12.0625 -27.671875 13.367188 -30.1875 15.296875 -32.09375 C 17.234375 -34 20.019531 -34.953125 23.65625 -34.953125 C 26.78125 -34.953125 29.179688 -33.988281 30.859375 -32.0625 C 32.535156 -30.132812 33.554688 -27.628906 33.921875 -24.546875 L 34.953125 -24.546875 C 35.648438 -27.671875 36.960938 -30.1875 38.890625 -32.09375 C 40.816406 -34 43.597656 -34.953125 47.234375 -34.953125 Z M 47.234375 -34.953125 "/></g></g></g><g fill="#222222" fill-opacity="1"><g transform="translate(1342.426739, 645.517892)"><g><path d="M 5.03125 12.546875 L 5.03125 -34.265625 L 10.6875 -34.265625 L 10.6875 -29.234375 L 9.796875 -25.3125 L 11.375 -25.3125 C 12.113281 -28.019531 13.628906 -30.300781 15.921875 -32.15625 C 18.222656 -34.019531 21.328125 -34.953125 25.234375 -34.953125 C 28.546875 -34.953125 31.429688 -34.171875 33.890625 -32.609375 C 36.347656 -31.046875 38.242188 -28.921875 39.578125 -26.234375 C 40.910156 -23.546875 41.578125 -20.5 41.578125 -17.09375 C 41.578125 -13.738281 40.910156 -10.71875 39.578125 -8.03125 C 38.242188 -5.34375 36.347656 -3.21875 33.890625 -1.65625 C 31.429688 -0.09375 28.546875 0.6875 25.234375 0.6875 C 21.328125 0.6875 18.222656 -0.238281 15.921875 -2.09375 C 13.628906 -3.957031 12.113281 -6.222656 11.375 -8.890625 L 9.796875 -8.890625 L 10.6875 -5.03125 L 10.6875 12.546875 Z M 10.6875 -17.09375 C 10.6875 -14.0625 11.269531 -11.59375 12.4375 -9.6875 C 13.613281 -7.78125 15.175781 -6.378906 17.125 -5.484375 C 19.082031 -4.585938 21.234375 -4.140625 23.578125 -4.140625 C 27.117188 -4.140625 30.0625 -5.179688 32.40625 -7.265625 C 34.75 -9.359375 35.921875 -12.632812 35.921875 -17.09375 C 35.921875 -21.601562 34.75 -24.898438 32.40625 -26.984375 C 30.0625 -29.078125 27.117188 -30.125 23.578125 -30.125 C 21.234375 -30.125 19.082031 -29.675781 17.125 -28.78125 C 15.175781 -27.882812 13.613281 -26.484375 12.4375 -24.578125 C 11.269531 -22.671875 10.6875 -20.175781 10.6875 -17.09375 Z M 10.6875 -17.09375 "/></g></g></g><g fill="#222222" fill-opacity="1"><g transform="translate(1386.764155, 645.517892)"><g><path d="M 3.65625 -17.578125 C 3.65625 -21.253906 4.363281 -24.390625 5.78125 -26.984375 C 7.207031 -29.585938 9.175781 -31.566406 11.6875 -32.921875 C 14.195312 -34.273438 17.054688 -34.953125 20.265625 -34.953125 C 25.097656 -34.953125 28.972656 -33.492188 31.890625 -30.578125 C 34.804688 -27.660156 36.265625 -23.554688 36.265625 -18.265625 L 36.265625 -16.0625 L 9.171875 -16.0625 C 9.304688 -13.90625 9.765625 -11.90625 10.546875 -10.0625 C 11.328125 -8.226562 12.578125 -6.757812 14.296875 -5.65625 C 16.023438 -4.550781 18.289062 -4 21.09375 -4 C 23.945312 -4 26.289062 -4.675781 28.125 -6.03125 C 29.96875 -7.382812 31.1875 -9.375 31.78125 -12 L 37.4375 -12 C 37.113281 -10.664062 36.582031 -9.257812 35.84375 -7.78125 C 35.113281 -6.3125 34.113281 -4.929688 32.84375 -3.640625 C 31.582031 -2.359375 29.988281 -1.316406 28.0625 -0.515625 C 26.132812 0.285156 23.8125 0.6875 21.09375 0.6875 C 17.007812 0.6875 13.675781 -0.148438 11.09375 -1.828125 C 8.519531 -3.503906 6.632812 -5.734375 5.4375 -8.515625 C 4.25 -11.296875 3.65625 -14.316406 3.65625 -17.578125 Z M 9.171875 -20.34375 L 30.75 -20.34375 C 30.75 -23.101562 29.851562 -25.4375 28.0625 -27.34375 C 26.269531 -29.25 23.671875 -30.203125 20.265625 -30.203125 C 16.910156 -30.203125 14.222656 -29.25 12.203125 -27.34375 C 10.179688 -25.4375 9.171875 -23.101562 9.171875 -20.34375 Z M 9.171875 -20.34375 "/></g></g></g><g fill="#222222" fill-opacity="1"><g transform="translate(1425.79212, 645.517892)"><g><path d="M 14.75 -29.4375 L 14.75 -4.0625 L 26.828125 -4.828125 L 26.828125 0 L 13.859375 0.6875 C 12.253906 0.78125 11.070312 0.414062 10.3125 -0.40625 C 9.550781 -1.238281 9.171875 -2.4375 9.171875 -4 L 9.171875 -29.4375 L 1.578125 -29.4375 L 1.578125 -34.265625 L 9.171875 -34.265625 L 9.171875 -43.09375 L 14.75 -44.8125 L 14.75 -34.265625 L 25.4375 -34.265625 L 25.4375 -29.4375 Z M 14.75 -29.4375 "/></g></g></g><g fill="#222222" fill-opacity="1"><g transform="translate(1454.95969, 645.517892)"><g><path d="M 15.09375 -39.71875 C 13.675781 -39.71875 12.492188 -40.175781 11.546875 -41.09375 C 10.609375 -42.007812 10.140625 -43.160156 10.140625 -44.546875 C 10.140625 -45.878906 10.609375 -47.003906 11.546875 -47.921875 C 12.492188 -48.835938 13.675781 -49.296875 15.09375 -49.296875 C 16.476562 -49.296875 17.648438 -48.835938 18.609375 -47.921875 C 19.578125 -47.003906 20.0625 -45.878906 20.0625 -44.546875 C 20.0625 -43.160156 19.578125 -42.007812 18.609375 -41.09375 C 17.648438 -40.175781 16.476562 -39.71875 15.09375 -39.71875 Z M 28.265625 0 L 3.65625 0 L 3.65625 -4.828125 L 13.3125 -4.828125 L 13.3125 -30.0625 L 6.203125 -29.4375 L 6.203125 -34.265625 L 14.140625 -34.953125 C 15.742188 -35.097656 16.890625 -34.78125 17.578125 -34 C 18.273438 -33.21875 18.625 -32.160156 18.625 -30.828125 L 18.625 -4.828125 L 28.265625 -4.828125 Z M 28.265625 0 "/></g></g></g><g fill="#222222" fill-opacity="1"><g transform="translate(1481.85156, 645.517892)"><g><path d="M 14.75 -29.4375 L 14.75 -4.0625 L 26.828125 -4.828125 L 26.828125 0 L 13.859375 0.6875 C 12.253906 0.78125 11.070312 0.414062 10.3125 -0.40625 C 9.550781 -1.238281 9.171875 -2.4375 9.171875 -4 L 9.171875 -29.4375 L 1.578125 -29.4375 L 1.578125 -34.265625 L 9.171875 -34.265625 L 9.171875 -43.09375 L 14.75 -44.8125 L 14.75 -34.265625 L 25.4375 -34.265625 L 25.4375 -29.4375 Z M 14.75 -29.4375 "/></g></g></g><g fill="#222222" fill-opacity="1"><g transform="translate(1511.01913, 645.517892)"><g><path d="M 15.09375 -39.71875 C 13.675781 -39.71875 12.492188 -40.175781 11.546875 -41.09375 C 10.609375 -42.007812 10.140625 -43.160156 10.140625 -44.546875 C 10.140625 -45.878906 10.609375 -47.003906 11.546875 -47.921875 C 12.492188 -48.835938 13.675781 -49.296875 15.09375 -49.296875 C 16.476562 -49.296875 17.648438 -48.835938 18.609375 -47.921875 C 19.578125 -47.003906 20.0625 -45.878906 20.0625 -44.546875 C 20.0625 -43.160156 19.578125 -42.007812 18.609375 -41.09375 C 17.648438 -40.175781 16.476562 -39.71875 15.09375 -39.71875 Z M 28.265625 0 L 3.65625 0 L 3.65625 -4.828125 L 13.3125 -4.828125 L 13.3125 -30.0625 L 6.203125 -29.4375 L 6.203125 -34.265625 L 14.140625 -34.953125 C 15.742188 -35.097656 16.890625 -34.78125 17.578125 -34 C 18.273438 -33.21875 18.625 -32.160156 18.625 -30.828125 L 18.625 -4.828125 L 28.265625 -4.828125 Z M 28.265625 0 "/></g></g></g><g fill="#222222" fill-opacity="1"><g transform="translate(1539.497009, 645.517892)"><g><path d="M 3.65625 -17.171875 C 3.65625 -20.484375 4.398438 -23.484375 5.890625 -26.171875 C 7.390625 -28.859375 9.503906 -30.992188 12.234375 -32.578125 C 14.972656 -34.160156 18.160156 -34.953125 21.796875 -34.953125 C 25.421875 -34.953125 28.578125 -34.160156 31.265625 -32.578125 C 33.953125 -30.992188 36.039062 -28.859375 37.53125 -26.171875 C 39.03125 -23.484375 39.78125 -20.484375 39.78125 -17.171875 C 39.78125 -13.859375 39.03125 -10.84375 37.53125 -8.125 C 36.039062 -5.414062 33.953125 -3.269531 31.265625 -1.6875 C 28.578125 -0.101562 25.421875 0.6875 21.796875 0.6875 C 18.160156 0.6875 14.972656 -0.101562 12.234375 -1.6875 C 9.503906 -3.269531 7.390625 -5.414062 5.890625 -8.125 C 4.398438 -10.84375 3.65625 -13.859375 3.65625 -17.171875 Z M 9.3125 -17.171875 C 9.3125 -14.773438 9.78125 -12.585938 10.71875 -10.609375 C 11.664062 -8.640625 13.066406 -7.066406 14.921875 -5.890625 C 16.785156 -4.722656 19.078125 -4.140625 21.796875 -4.140625 C 24.503906 -4.140625 26.773438 -4.722656 28.609375 -5.890625 C 30.453125 -7.066406 31.84375 -8.640625 32.78125 -10.609375 C 33.726562 -12.585938 34.203125 -14.773438 34.203125 -17.171875 C 34.203125 -19.554688 33.726562 -21.722656 32.78125 -23.671875 C 31.84375 -25.628906 30.453125 -27.191406 28.609375 -28.359375 C 26.773438 -29.535156 24.503906 -30.125 21.796875 -30.125 C 19.078125 -30.125 16.785156 -29.535156 14.921875 -28.359375 C 13.066406 -27.191406 11.664062 -25.628906 10.71875 -23.671875 C 9.78125 -21.722656 9.3125 -19.554688 9.3125 -17.171875 Z M 9.3125 -17.171875 "/></g></g></g><g fill="#222222" fill-opacity="1"><g transform="translate(1582.110605, 645.517892)"><g><path d="M 23.03125 -30.125 C 19.394531 -30.125 16.425781 -28.789062 14.125 -26.125 C 11.832031 -23.46875 10.6875 -19.816406 10.6875 -15.171875 L 10.6875 0 L 5.03125 0 L 5.03125 -34.265625 L 10.6875 -34.265625 L 10.6875 -28.34375 L 9.796875 -24.40625 L 11.375 -24.40625 C 12.0625 -27.53125 13.5 -30.066406 15.6875 -32.015625 C 17.875 -33.972656 20.828125 -34.953125 24.546875 -34.953125 C 28.410156 -34.953125 31.5 -33.816406 33.8125 -31.546875 C 36.132812 -29.273438 37.296875 -25.75 37.296875 -20.96875 L 37.296875 0 L 31.71875 0 L 31.71875 -20.203125 C 31.71875 -23.785156 31.003906 -26.332031 29.578125 -27.84375 C 28.148438 -29.363281 25.96875 -30.125 23.03125 -30.125 Z M 23.03125 -30.125 "/></g></g></g></svg>