<?xml version="1.0" encoding="UTF-8" standalone="no"?>
<!-- Created with Inkscape (http://www.inkscape.org/) -->

<svg
   version="1.1"
   id="svg1"
   width="2933.3333"
   height="1954.6667"
   viewBox="0 0 2933.3333 1954.6667"
   sodipodi:docname="59539261_tiger_print_background.eps"
   xmlns:inkscape="http://www.inkscape.org/namespaces/inkscape"
   xmlns:sodipodi="http://sodipodi.sourceforge.net/DTD/sodipodi-0.dtd"
   xmlns="http://www.w3.org/2000/svg"
   xmlns:svg="http://www.w3.org/2000/svg">
  <defs
     id="defs1" />
  <sodipodi:namedview
     id="namedview1"
     pagecolor="#ffffff"
     bordercolor="#000000"
     borderopacity="0.25"
     inkscape:showpageshadow="2"
     inkscape:pageopacity="0.0"
     inkscape:pagecheckerboard="0"
     inkscape:deskcolor="#d1d1d1">
    <inkscape:page
       x="0"
       y="0"
       inkscape:label="1"
       id="page1"
       width="2933.3333"
       height="1954.6667"
       margin="0"
       bleed="0" />
  </sodipodi:namedview>
  <g
     id="g1"
     inkscape:groupmode="layer"
     inkscape:label="1">
    <g
       id="group-R5">
      <path
         id="path2"
         d="M 22000,14660 V 0 H 0 v 14660 h 22000"
         style="fill:#f5761d;fill-opacity:1;fill-rule:nonzero;stroke:none"
         transform="matrix(0.13333333,0,0,-0.13333333,0,1954.6667)" />
      <path
         id="path3"
         d="m 16422.2,12593.6 c -114.5,-976.7 -231.3,-2126.6 -357,-3091.6 -193.8,-1506 -440,-3018.8 -846.3,-4483.6 C 14752.2,3318.1 14053.4,1666.5 13032,220.801 12979.7,146.602 12926.4,73 12872.2,0 h -731.1 c 447.7,596.801 837.3,1237.8 1173.9,1903 1083.8,2139 1595.8,4509.5 1952.4,6866 75.2,489.9 147,1012 216,1530 -100.5,-104.1 -204.6,-207.3 -307.1,-300.8 -29.2,-26.6 -82.2,-76.1 -109.1,-100.6 -12.1,-11.3 -24.2,-22.5 -36.9,-33 l -150.4,-128.7 c -17.3,-14.4 -41.1,-35.2 -56.5,-48.2 l -19.3,-15.4 -77.5,-61.5 c -254,-204.4 -529.7,-396.8 -808.2,-567.5 -79,-51 -173.7,-101.7 -255.3,-150 -50.9,-30.4 -204.7,-110.5 -260.8,-140.1 -96.1,-50.4 -212.3,-103.9 -310.1,-151.5 -60,-26.6 -211,-91.9 -271.2,-118.1 -101.8,-39.7 -219.1,-87.2 -321.7,-124 C 11480,7989 10418.7,7841.7 9467.9,7324.2 8209,6629.5 7298.1,5392.9 6988.5,3970.7 c 95.1,929.7 481.3,1820.1 1063.3,2548.8 387.8,484.9 866.1,901.8 1405.9,1211.1 914.6,527.3 1985.6,744.1 2940.6,1148.2 59.8,25.7 150.5,66.5 210.4,92.3 55.6,27.2 192.5,92.8 248.1,119.8 74.7,39.2 169,89.3 243.5,128.8 72.2,41.6 206.9,117.6 277.4,162 337.4,205.6 664.1,440.4 964.8,696.6 l 70.1,58.9 17.4,14.8 17,15.3 33.9,30.8 135.6,122.7 c 11.5,10.1 22.4,20.7 33.3,31.4 l 32.8,31.8 65.6,63.7 c 125.7,120.9 262.3,266.3 377.4,397.3 81.3,89 160.7,188.7 235.8,278.5 l 111.4,144.4 55.6,72.2 c 132.5,187 755.4,1058.8 893.8,1253.5"
         style="fill:#040606;fill-opacity:1;fill-rule:nonzero;stroke:none"
         transform="matrix(0.13333333,0,0,-0.13333333,0,1954.6667)" />
      <path
         id="path4"
         d="m 13610.8,4704.5 c -112.1,-299.4 -241.6,-593.3 -382.6,-880.1 -116.4,-235.2 -241.8,-471.7 -372,-698.9 -80.4,-140.9 -162.3,-285.2 -254.5,-418.3 C 12056.9,1931.3 11350.5,1289.3 10697.1,613.199 10503.9,410.402 10305.9,208.301 10115.5,0 h -283.4 c 425.6,628.699 927.6,1207.9 1405.2,1792.7 382.1,474.7 766.5,928.3 1037.7,1466.4 343.9,698.5 657.6,1416.5 858.5,2166.5 76.8,285.2 135.9,577.5 171.7,871.8 -144.3,-124.3 -296.9,-238.5 -456,-344.3 -1086.7,-731 -2407.5,-981 -3498.8,-1688 -666.6,-433.7 -1227,-1013.5 -1661.2,-1684.1 285.6,774.1 795.2,1466.1 1430.2,1995.8 996,836.7 2318.9,1190.7 3351.1,1927 358.4,255.5 683.2,558.8 916,932.1 l 567,900.5 76.5,-1061.7 c 65.7,-877.8 -113.1,-1757.5 -419.2,-2570.2"
         style="fill:#040606;fill-opacity:1;fill-rule:nonzero;stroke:none"
         transform="matrix(0.13333333,0,0,-0.13333333,0,1954.6667)" />
      <path
         id="path5"
         d="m 11105.1,4116.6 c -46.7,-171.3 -108.9,-337.6 -179.2,-501 C 10221.3,2015.4 8778.2,963.5 7366.6,0 h -949.3 c 522.1,501.898 1103.6,936.898 1673.6,1373.8 675.2,514.5 1342.6,1028.8 1957.3,1612.8 247.4,234.5 484.7,478.2 712.6,734.1 115.6,128.7 228.2,261.5 344.3,395.9"
         style="fill:#040606;fill-opacity:1;fill-rule:nonzero;stroke:none"
         transform="matrix(0.13333333,0,0,-0.13333333,0,1954.6667)" />
      <path
         id="path6"
         d="m 17435.6,14660 c -393,-355.6 -824.7,-673 -1262.9,-960.5 -1148.4,-763.8 -2420.9,-1409 -3395.5,-2401 -69.8,-75.2 -142.6,-148.2 -208.5,-226.4 -152.9,-177.8 -850.8,-1029.4 -1010.9,-1219.9 l 217.9,1228.2 38.2,215.1 c 16.2,70.6 32.2,141.3 49.1,211.7 l 59.5,207.6 c 85.8,270.3 194.1,532.8 319,787.1 373.7,762.6 897.5,1447.4 1360.3,2158.1 h 431.4 c -388.9,-814.3 -898.4,-1592.9 -1240.2,-2399 829.6,719.4 1819.8,1263 2764,1809.6 322.9,188.9 645.6,382.3 958.6,589.4 h 920"
         style="fill:#040606;fill-opacity:1;fill-rule:nonzero;stroke:none"
         transform="matrix(0.13333333,0,0,-0.13333333,0,1954.6667)" />
      <path
         id="path7"
         d="m 10535.8,12434.3 c 11.9,-188.6 22.6,-394.2 17.6,-587.9 -3.9,-132.3 -14.2,-273 -32.5,-404.3 -41.5,-318.9 -128.3,-636 -258.2,-930.5 -79.6,-178.8 -179.7,-352 -293.3,-511.9 -29,-37.5 -64.7,-85.4 -94.2,-122.4 -385.4,-473.4 -932.6,-782.6 -1500.9,-980.7 -329.8,-116.6 -669.8,-203.6 -1011,-275.1 280.8,146.9 561.5,282.9 836,435.4 343.8,191.7 678.4,406.1 960.8,680.5 161.8,155.8 300.4,331.4 415.3,522.9 88.3,154.4 165.8,317.6 222.1,486.7 l 27.4,81.5 23.9,82.8 c 6.4,20.7 17.3,62.1 22,83.3 77.5,307.8 107.5,629 99.5,945.9 -2.7,89.8 -7.8,179.5 -13.8,269.2 -109.8,-131.1 -225.7,-257.2 -343.6,-379.9 C 9100.1,11291.2 8497,10763 8357.2,10006.2 c -15.6,-56.1 -41.5,-148.5 -57.8,-204.4 -20.4,-68.8 -45.2,-145.8 -72.8,-212.2 l -22,-52.7 -24.8,-51.8 -12.5,-25.7 c -4.3,-8.5 -9.2,-16.7 -13.8,-25 -185.1,-337.3 -485.5,-590 -790.2,-812.9 240.3,308.3 499.5,618.8 600.6,1001.5 4.5,17.9 12.1,53.9 16.3,70.7 2.7,13.5 10.6,57.7 13.5,72.1 10.1,63.8 19.8,137.6 27.6,201.7 l 13.6,105.6 -2.6,-16.3 c 10.5,258.6 76.2,514.1 179.4,750.5 259.9,601.8 725.1,1077.2 1141.6,1570.6 159.6,192.2 312.6,389.7 441.2,603.7 39.7,66.8 79.6,139 112.9,208.9 18.5,37.9 26.6,58.5 43,94 l 620.4,1375.5 h 58.3 L 10521,13144.2 c -16.2,-232.7 0.7,-470.6 14.8,-709.9"
         style="fill:#040606;fill-opacity:1;fill-rule:nonzero;stroke:none"
         transform="matrix(0.13333333,0,0,-0.13333333,0,1954.6667)" />
      <path
         id="path8"
         d="m 19976.4,14660 c -78.7,-273.1 -139.5,-552.3 -195.7,-829.4 -57.9,-294.8 -109.4,-594.8 -164.1,-895.3 -74.8,-840.8 -183.8,-1679.4 -205.6,-2517.6 -17.5,-590.8 9.1,-1192.8 58,-1783.2 20.2,-260.6 57.5,-637.4 69.7,-896.9 -81.4,129.5 -153.1,263.7 -221.2,400.5 -340.3,684.7 -514.3,1404.2 -564.3,2134.7 -472.9,-824.9 -1143.2,-1542.5 -1960.9,-2021 70.5,86 149.1,173.7 218.3,261 l 53.7,65.1 c 17.9,21.6 35.9,43 52.7,65.6 169.1,214 338.7,445.5 487.3,675.2 208.5,318 396.7,655.2 557.4,999.6 200.3,424.3 358.4,871.8 476.6,1325.3 250.9,984.7 345.7,2041.5 673.2,3016.4 h 664.9"
         style="fill:#040606;fill-opacity:1;fill-rule:nonzero;stroke:none"
         transform="matrix(0.13333333,0,0,-0.13333333,0,1954.6667)" />
      <path
         id="path9"
         d="m 18925.1,3574.2 c -1.9,-16.6 -7,-84.6 -8.7,-99.1 -1.9,-11 -6.3,-47.5 -8.2,-59.4 l -22.2,-158 -30.3,-156.6 c -7.8,-44.1 -25.1,-110.6 -35.9,-154.7 -10.8,-45.1 -27.3,-109.4 -41,-152.9 -13.4,-44 -31.3,-108.1 -46,-150.9 C 18409.9,1664.7 17774.1,832.102 17186.2,0 h -430.4 c 527.4,987.402 1191.3,1918.3 1440.3,3018.3 11.1,61.4 29.5,138 37.6,199.7 l 20.1,133.4 c 1.3,20.8 15,148.4 16.5,167.5 l 1.7,16.8 0.8,16.8 c 2,48 5.4,120.8 7.9,168.7 8.5,455.4 -58.2,904.9 -162.9,1346.8 -268.4,-1067.7 -660.8,-2124.6 -1384.6,-2969.2 -95.7,-109.5 -198.7,-220.1 -303.5,-320.7 C 15747.7,1120.5 14848.4,671.301 14190.5,0 h -231.9 c 626.1,944.902 1739.5,1561.9 2394.9,2487 413.5,573 687.3,1238.8 887.7,1915.4 180.5,607.7 307,1237.2 426.2,1860.6 35.3,187.5 261.3,1366.2 301.3,1577.1 229.6,-701.7 600.9,-1705.1 774.3,-2410.4 149.8,-603.2 238.5,-1232.7 182.1,-1855.5"
         style="fill:#040606;fill-opacity:1;fill-rule:nonzero;stroke:none"
         transform="matrix(0.13333333,0,0,-0.13333333,0,1954.6667)" />
      <path
         id="path10"
         d="m 5508.57,5064.13 c 28.19,-104.05 71.51,-204.38 127.49,-297.53 l 47.08,-78.25 c 587.24,269.87 1090.13,701.94 1311.08,1327.33 93.28,261.69 114.14,552.15 91.18,823.93 -22.06,254.24 -79.02,505.4 -145.79,750.75 l -120.75,456.22 C 6282.59,7583.1 5668.1,7095.84 5444.99,6389.21 c -104.57,-326.38 -124.55,-702.14 26.59,-1015.02 22.05,595.32 371.72,1081.58 798.08,1458.68 25.26,22.51 59.72,52.95 85.65,74.74 35.57,30.53 71.74,60.74 108.32,90.78 43.24,-259.91 61.75,-515.18 6.83,-779.46 -102.13,-466.26 -406.43,-872.65 -743.97,-1213.82 -85.91,89.9 -159.51,192.35 -219.54,301.56 -9.1,16.49 -26.84,50.77 -35.37,67.52 -0.5,-12.81 -0.65,-25.64 -0.88,-38.59 0.45,-91.43 13.77,-182.81 37.87,-271.47"
         style="fill:#040606;fill-opacity:1;fill-rule:nonzero;stroke:none"
         transform="matrix(0.13333333,0,0,-0.13333333,0,1954.6667)" />
      <path
         id="path11"
         d="M 21366.9,1502.9 C 21167.1,864.902 20705,349.801 20146.1,0 h -604.6 c -5.3,11.5 -10.2,22.9023 -14.9,34.1992 -66.4,154.9028 -106.4,320.4998 -114.1,488.1018 -1.3,32.699 -1.3,65.5 0,98.101 l 22.2,-43.3 c 80.3,-154.301 181.3,-299.403 301.3,-425 440.2,444.699 834.2,976.098 954.5,1588.498 37.2,204.9 39.9,403.5 21.6,616.5 -9,106.2 -23.3,214.2 -41,323.9 -70.9,-58.1 -140.9,-117.1 -209.9,-177.8 -189,-166.9 -368.6,-345.3 -524.1,-543.8 -301.2,-390.6 -504,-827 -524.6,-1338.998 -191.7,400.298 -166.6,871.998 -33.7,1287.998 222.4,702.7 764.8,1257.2 1303.7,1722.2 l 439.6,380.9 153.3,-578.9 c 90.1,-333.2 168.1,-674.7 189.5,-1020.6 19.7,-297.3 -4.7,-619.4 -98,-909.1"
         style="fill:#040606;fill-opacity:1;fill-rule:nonzero;stroke:none"
         transform="matrix(0.13333333,0,0,-0.13333333,0,1954.6667)" />
      <path
         id="path12"
         d="m 9463.2,14660 c -126.7,-321.5 -289.1,-630.2 -472,-920.5 C 8581.5,13090 8072.3,12509 7543.5,11955.3 6131.5,10461.9 4555,9110.1 2876.5,7924.9 2460.6,7634.3 1972.6,7304.7 1542.7,7035.8 1049,6723 512.5,6404.2 0,6120.5 v 1557.2 c 654.398,986.2 1290.9,1985.1 1892.2,2989.2 785.6,1298.9 1548.3,2655.9 2281.8,3993.1 h 76.9 C 3236.7,12056.4 1944.8,9558.3 459.898,7189.7 c 241.704,145.4 482.704,293.5 709.302,437.8 1262.5,794.5 2495.3,1671.7 3662.6,2600 761.5,602.6 1508.9,1243 2227.2,1897.8 271.7,249 558.1,511 818.2,771.1 530,528.8 1039,1106.2 1401.8,1763.6 h 184.2"
         style="fill:#040606;fill-opacity:1;fill-rule:nonzero;stroke:none"
         transform="matrix(0.13333333,0,0,-0.13333333,0,1954.6667)" />
      <path
         id="path13"
         d="m 6713.2,14660 c -255.8,-461.7 -520.7,-918.2 -786.8,-1371.9 -626,-1077.8 -1374.2,-2199.2 -2534.5,-2755.1 -40.4,-18.1 -81.2,-35.3 -122.3,-51.4 43.1,59 113.3,149 158.4,208.7 692.8,900.6 1234,1892.5 1845.8,2847.8 242.7,377.7 490.5,752.2 745,1121.9 h 694.4"
         style="fill:#040606;fill-opacity:1;fill-rule:nonzero;stroke:none"
         transform="matrix(0.13333333,0,0,-0.13333333,0,1954.6667)" />
      <path
         id="path14"
         d="M 5905.5,9380.7 5134,7891.6 l -33.1,-64 c -207.2,-416.9 -407.7,-855.2 -511.1,-1306.1 -12.2,-57.2 -22.1,-116.4 -28.4,-174.4 -43.9,-465.4 -65.2,-930.3 -170,-1392.5 C 4235,4224.7 3866.5,3735.3 3370.1,3199.6 2948.4,2735.4 2509.1,2276.3 2083.6,1815.6 1916.1,1626.4 1768.4,1420.9 1633.2,1207 1385.1,812.801 1180.7,391.801 924.398,0 h -189 c 9.801,20.8984 19.5,41.8984 29,63 175.801,383.5 311.802,783.301 486.602,1169.8 156.2,350 349.3,688.1 587,990.3 418.3,536.8 856.3,1070.4 1279.1,1601.8 235.4,302.7 446.1,623.2 550.9,993.4 150.6,514.5 152.7,1080.2 202,1615.8 19.4,184.2 62.2,364.5 116.8,540.5 -84.6,-63.1 -169.2,-125.9 -253.4,-188.1 C 3067.3,6297 2386.5,5819.6 1686.7,5376.6 1515.6,5268.5 1332.9,5170.7 1156.7,5080.8 821.102,4909.3 498.699,4758.1 197.898,4551.2 130.699,4504.8 64.6016,4456.2 0,4405.3 v 336.5 c 54.3008,49.9 109.699,98 166,144.4 404.199,330.1 870.6,571 1279.7,887.7 322.8,250.2 669.3,523.1 987.9,778.8 1092,873.2 2384.6,1935.7 3471.9,2828"
         style="fill:#040606;fill-opacity:1;fill-rule:nonzero;stroke:none"
         transform="matrix(0.13333333,0,0,-0.13333333,0,1954.6667)" />
      <path
         id="path15"
         d="M 3274.6,5335.4 C 2257.1,3909.9 989.602,2193.8 4.5,755.801 3,753.5 1.5,751.301 0,749 V 1901.5 C 300,2372.5 614.801,2834 939.102,3288.8 623.602,3108.5 309.301,2925.1 0,2733.8 v 621.1 c 439.398,330.2 897.801,634.6 1367.7,919.6 409,252.6 1475.5,820.7 1906.9,1060.9"
         style="fill:#040606;fill-opacity:1;fill-rule:nonzero;stroke:none"
         transform="matrix(0.13333333,0,0,-0.13333333,0,1954.6667)" />
      <path
         id="path16"
         d="m 6316.3,2503.1 c -50,-14.4 -94.7,-32.8 -137.6,-54.1 -125.9,-62.7 -241.5,-143.5 -355.3,-224.9 C 5372.6,1892.3 4939,1543.2 4481.2,1217.7 4240.4,1042.7 3994.2,874.199 3743.3,712.402 3552.1,539.398 3363.1,364.902 3188.8,177 3134.9,119.801 3082.5,60.8008 3032.2,0 h -623.4 c 26.3,69.3984 55.7,137.199 87.5,202.5 236.8,484.902 616.1,880.4 1002.5,1232.8 400.5,367.4 820.5,688.5 1138.1,1119.1 170.1,233.4 301.1,492.5 366,777.9 26.6,117.6 40.8,241.2 42.1,372.8 228.3,-346.6 224.8,-805.5 109.6,-1194.6 -14.2,-48.6 -30.5,-96.7 -48.4,-144.1 94.8,38.2 190.7,73 287.5,103.7 222.9,66.3 458.2,115.2 693.6,95.6 78.5,-8.2 160.3,-24.4 229,-62.6"
         style="fill:#040606;fill-opacity:1;fill-rule:nonzero;stroke:none"
         transform="matrix(0.13333333,0,0,-0.13333333,0,1954.6667)" />
      <path
         id="path17"
         d="m 21526.8,9587.76 c -292.1,-639.92 -603,-1276.41 -972.7,-1873.79 -381.1,-629.05 -894.3,-1233.07 -1017.1,-1993.2 -63,-389.18 -20.9,-833.4 235.5,-1146.07 -37.2,987.91 725.8,1662.66 1231.8,2433.97 334.4,510.95 571.7,1085.24 676.6,1684.99 70.1,406.96 86.5,828.4 5.9,1234.96 -57.3,-113.24 -107.9,-227.09 -160,-340.86"
         style="fill:#040606;fill-opacity:1;fill-rule:nonzero;stroke:none"
         transform="matrix(0.13333333,0,0,-0.13333333,0,1954.6667)" />
      <path
         id="path18"
         d="m 22000,14660 v -95.5 c -60.9,-191.9 -122.3,-383.5 -180,-576 -62.2,-193.2 -115,-393.1 -175.6,-586.1 -31.9,-117.7 -98,-353.7 -132.2,-470.7 -36.6,-139.1 -87.3,-335.9 -125.9,-472.5 -38.4,-158.4 -77.8,-316.6 -119.7,-474.6 -35,-154.7 -75.5,-323.6 -114,-477.1 -110,-482.4 -213.8,-965.3 -318.7,-1450.4 -67.9,-330.2 -133.1,-659.5 -216.7,-990 -222.7,959.3 -213.6,1961.7 -72.7,2933 53.7,377.3 141.1,761.8 236.6,1131.2 35.9,122.9 109.8,370.1 148,492.2 118,352.6 254.9,699.2 411.8,1036.5 h 659.1"
         style="fill:#040606;fill-opacity:1;fill-rule:nonzero;stroke:none"
         transform="matrix(0.13333333,0,0,-0.13333333,0,1954.6667)" />
      <path
         id="path19"
         d="m 2416.3,14268.6 c -41.7,-150.8 -91.2,-296.8 -142.1,-441.8 C 1894,12757.1 1403.8,11728.9 884.102,10721 639.801,10253.5 387.301,9789.2 118.602,9334.9 79.1992,9268.6 39.6992,9202.4 0,9136.3 v 1345.3 c 270.801,601.9 578.699,1192.1 917.199,1757 353.801,589.9 744.401,1158.3 1187.201,1685.5 100.4,117.1 202.3,233.2 311.9,344.5"
         style="fill:#040606;fill-opacity:1;fill-rule:nonzero;stroke:none"
         transform="matrix(0.13333333,0,0,-0.13333333,0,1954.6667)" />
      <path
         id="path20"
         d="m 1924.6,14660 c -89.7,-104.2 -183.8,-203.4 -280.5,-297 C 1146.6,13872.3 546.398,13494 0,13065.2 v 599.7 c 218.602,217.3 445.801,424.5 661.199,628.4 121.903,116.6 246.903,238.8 369.301,366.7 h 894.1"
         style="fill:#040606;fill-opacity:1;fill-rule:nonzero;stroke:none"
         transform="matrix(0.13333333,0,0,-0.13333333,0,1954.6667)" />
    </g>
  </g>
</svg>
